<svg width="303" height="76" viewBox="0 0 303 76" fill="none" xmlns="http://www.w3.org/2000/svg">
<g clip-path="url(#clip0_1_320)">
<path fill-rule="evenodd" clip-rule="evenodd" d="M46.5302 69.1475C46.5302 68.0401 49.0229 68.4554 51.4463 68.4554C52.3464 68.4554 52.1387 69.9089 52.1387 70.8087H46.5302V69.1475ZM49.3691 64.9253L51.5848 67.4863H47.1533C47.3611 66.9326 48.8844 65.2714 49.3691 64.9253ZM50.4077 64.0947C50.4077 63.1949 51.7233 61.8798 52.4157 61.3953V66.6557C52.208 66.5173 51.654 65.8251 51.3771 65.479C51.1693 65.2714 50.4077 64.3716 50.4077 64.0947ZM46.184 66.4481V61.3953C46.7379 61.5337 48.3997 63.3333 48.3997 64.0947C48.3997 64.51 47.7073 64.9945 47.4303 65.3406C47.0149 65.8251 46.8071 66.3097 46.184 66.4481ZM72.2187 60.2186H74.0882V60.9107H72.2187V60.2186ZM47.2226 60.357H51.4463C51.2386 61.1184 49.7845 62.6412 49.4383 62.918C48.7459 62.5027 47.4995 60.98 47.2226 60.357ZM73.0496 58.8342C73.465 59.1111 73.6035 59.1111 73.742 59.6648H72.5649C72.7726 59.388 72.8419 59.2495 73.0496 58.8342ZM49.3691 56.6193C49.5768 56.7577 50.2692 57.5883 50.4769 57.8652C51.4463 58.9727 51.3078 58.6958 51.3771 59.3188H47.2918C47.4303 58.4882 49.0921 56.827 49.3691 56.6193ZM72.2187 59.1803V57.796C72.4957 58.0036 72.7034 58.0036 72.7034 58.4882C72.7034 59.0419 72.4264 58.9727 72.2187 59.1803ZM73.6035 58.4882C73.8112 58.2113 74.019 57.9344 74.2959 57.6576V59.3188C73.742 58.9727 73.8805 59.0419 73.6035 58.4882ZM72.5649 57.3115H73.9497L73.1188 58.2113C72.8419 57.8652 72.7726 57.7268 72.5649 57.3115ZM73.2573 56.1348C73.6035 56.4117 73.6728 56.6193 73.9497 56.9654H72.5649C72.7034 56.4117 72.8419 56.4117 73.2573 56.1348ZM73.742 55.9964L74.2959 55.9271V56.4117L73.742 55.9964ZM50.4077 55.6503C50.4077 55.3734 50.9616 54.7505 51.1001 54.5428C51.5848 53.9891 51.654 53.9891 52.4157 53.8506V58.4189C52.1387 58.1421 50.4077 56.4809 50.4077 55.6503ZM46.184 58.3497V54.1275C47.5688 54.1275 47.2918 54.0583 47.7765 54.7505C48.4689 55.5811 48.8844 55.7195 47.4303 57.2423C46.4609 58.1421 46.9456 58.1421 46.184 58.3497ZM72.2187 56.4809V55.7887H72.7034L72.2187 56.4809ZM49.3691 54.612C48.8844 54.612 48.8844 54.3352 48.6766 54.1275C49.2998 53.9891 49.2306 53.9891 50.0615 53.9891C49.8537 54.3352 49.923 54.612 49.3691 54.612ZM73.9497 50.3898C73.9497 50.459 74.019 50.459 74.019 50.5282C74.1574 51.3588 74.2959 50.0437 74.2959 53.643C73.8112 53.2969 73.9497 53.1585 73.9497 52.3279C73.9497 51.6357 73.9497 51.0128 73.9497 50.3898ZM73.0496 50.2514H73.742V53.2969C72.9111 53.0893 73.0496 53.0893 73.0496 52.1202C73.0496 51.4973 73.0496 50.8743 73.0496 50.2514ZM72.4264 50.2514H72.9111V52.9508C72.1495 52.8124 72.2187 52.8124 72.2187 51.9818C72.2187 51.082 72.3572 50.8051 72.4264 50.2514ZM70.6954 51.5665H71.0416V52.2587H70.6954V51.5665ZM70.003 51.9126C70.2107 51.7049 70.6261 52.1894 70.2107 51.9818C70.2107 51.9818 69.726 52.1894 70.003 51.9126ZM68.2027 51.082L68.7566 51.5665L68.2027 51.6357V51.082ZM70.3492 43.9526V51.3588H69.8645C69.8645 50.0437 69.8645 48.7978 69.8645 47.4827C69.8645 46.8597 69.7952 46.0291 69.8645 45.4754C69.9337 45.1293 69.9337 44.9909 70.0722 44.6448L70.2107 44.2987L70.3492 43.9526ZM67.5103 50.5282C68.2027 50.7359 67.995 50.5974 67.995 51.3588H67.3026C67.3718 50.9435 67.3718 50.9435 67.5103 50.5282ZM69.0336 50.7359C69.0336 48.867 68.7566 47.8288 69.5183 46.6521V51.3588C69.2413 51.2204 69.0336 51.1512 69.0336 50.7359ZM65.7793 47.3443C65.9177 47.5519 66.0562 47.6211 66.1947 47.9672C66.4024 48.5902 66.3332 50.3206 66.3332 51.082H65.7793V47.3443ZM64.9484 45.4754C65.7793 46.4444 65.433 48.9362 65.433 51.082H64.9484V45.4754ZM64.1175 43.2605L64.6021 44.6448V50.7359C63.7713 50.5282 64.1175 49.6284 64.1175 47.3443C64.1175 45.9599 64.1175 44.6448 64.1175 43.2605ZM62.3864 49.9053C62.8019 50.1821 62.8711 50.0437 62.8711 50.7359C62.2479 50.5282 62.4557 50.6667 62.3864 49.9053ZM61.5555 48.867C62.1787 49.2823 62.0402 49.5592 62.0402 50.5282H61.5555V48.867ZM68.2027 50.0437C68.2027 49.49 68.4104 49.2131 68.6874 48.867V50.7359C68.4104 50.5282 68.2027 50.5282 68.2027 50.0437ZM66.4717 50.8743V48.6594C66.8179 49.0055 67.1641 49.3516 67.1641 50.0437C67.1641 50.5282 66.7486 50.6667 66.4717 50.8743ZM60.7246 47.8288C61.6248 48.4517 61.417 49.0747 61.417 50.5282C61.1401 50.3898 61.2093 50.3898 60.7246 50.3898V47.8288ZM60.0322 46.6521C60.1707 46.8597 60.3092 46.929 60.4477 47.275C60.5862 47.6903 60.5862 47.6903 60.5862 48.1749C60.5862 48.867 60.5862 49.6284 60.5862 50.3898H60.1015L60.0322 46.6521ZM59.2013 45.337C60.0322 46.306 59.686 48.4517 59.686 50.3898C58.9244 50.1822 59.2013 50.3206 59.2013 48.1749C59.2013 47.2058 59.2013 46.306 59.2013 45.337ZM58.3704 43.8142C58.5089 43.9526 58.6474 44.0911 58.7166 44.2987C58.9936 44.9909 58.8551 49.3515 58.8551 50.2514H58.3704V43.8142ZM57.5395 41.9454C57.955 42.5683 58.0242 42.9144 58.0242 43.6066V50.1821H57.5395V41.9454ZM56.6394 40.0765C57.4703 41.2532 57.1241 42.9836 57.1241 44.7832C57.1241 46.5137 57.1241 48.2441 57.1241 50.0437H56.6394V40.0765ZM55.8085 38.2076C56.5009 38.969 56.2932 39.5228 56.2932 40.7687V50.0437H55.8085V38.2076ZM55.3238 36.8925C55.67 37.377 55.67 37.7231 55.67 38.2076L55.3238 50.0437V36.8925ZM63.2866 40.9071C63.6328 41.3916 63.7713 42.0146 63.7713 42.776V50.2514C62.9404 49.6976 63.2866 48.0364 63.2866 45.8215C63.2866 44.1603 63.2866 42.5683 63.2866 40.9071ZM51.5848 40.2149C52.3464 40.7687 51.5848 40.2149 52.3464 42.4991C52.6234 43.2605 52.4849 48.9362 52.4849 49.8361H51.654C51.5848 49.9053 51.5848 40.2149 51.5848 40.2149ZM50.2692 39.592H51.2386V49.9053H50.2V39.592H50.2692ZM48.8844 39.592H49.923V49.7668H48.8844V39.592ZM47.3611 39.592H48.3997V49.7668H47.3611V39.592ZM47.0149 40.2149V49.6976H46.184C46.184 48.0364 46.184 46.306 46.184 44.6448C46.184 43.4681 46.0455 43.1913 46.3917 42.2914C47.0149 40.6995 46.2532 40.8379 47.0149 40.2149ZM5.26234 47.2058C5.67779 47.0674 5.88551 46.8597 6.23172 46.6521V49.6976H5.26234V47.2058ZM3.87751 48.0364C4.50069 47.898 4.08524 47.898 4.70841 47.6903V49.6976H3.87751V48.0364ZM2.3542 49.2131C2.3542 48.6594 2.97738 48.5902 3.39282 48.3825V49.7668H2.3542C2.3542 49.6976 2.3542 49.2131 2.3542 49.2131ZM2.008 49.0055V49.6976H1.03862C1.38483 49.2823 1.52331 49.2823 2.008 49.0055ZM41.7525 23.8106C41.7525 23.5337 42.0295 23.1876 42.2372 22.9107L42.7911 22.0801V49.49H41.7525V23.8106ZM40.4369 26.0255C40.4369 25.7486 40.7139 25.4025 40.8524 25.1257C41.0601 24.7796 40.9216 24.9872 41.1293 24.7104C41.2678 24.5027 41.3371 24.4335 41.4063 24.3643V49.5592H40.3677L40.4369 26.0255ZM38.9136 28.5865C38.9136 27.8944 39.606 27.133 39.9522 26.7177V49.5592H38.9136V28.5865ZM37.5288 30.5938C37.5288 29.9016 38.2212 29.1403 38.5674 28.725V49.49H37.5288V30.5938ZM36.2132 32.3242C36.2132 31.9781 36.9749 31.0091 37.2518 30.8015V49.5592H36.2132V32.3242ZM34.8284 34.1239C34.8284 33.7778 35.1053 33.5009 35.3823 33.1548C35.5208 32.9472 35.59 32.9472 35.6593 32.8087V49.5592H34.8284V34.1239ZM33.3051 35.9927C33.3051 35.6466 34.136 34.816 34.3437 34.6084V49.49H33.3051V35.9927ZM31.9895 37.7231C31.9895 37.377 32.7511 36.5464 33.0281 36.3388V49.5592H31.9895V37.7231ZM30.6047 39.2459C30.6047 38.7614 31.1586 38.4153 31.4356 38.2076V49.5592H30.6047V39.2459ZM19.3183 47.8288C19.7338 47.6903 19.9415 47.5519 20.3569 47.3443V49.5592H19.3183V47.8288ZM18.9721 48.1749V49.5592H17.9335C17.9335 48.7286 17.795 48.4517 18.9721 48.1749ZM17.4488 48.867V49.5592H16.4102C16.7564 49.0747 16.8949 49.1439 17.4488 48.867ZM13.7098 41.2532C13.7098 40.6995 14.333 40.4226 14.7484 40.2149V49.49H13.7098V41.2532ZM12.1865 42.6375C12.1865 42.0838 12.7404 41.7377 13.2251 41.5993V49.5592H12.1865V42.6375ZM10.8016 43.6066C10.8016 43.122 10.9401 43.2605 11.2171 42.9836C11.4941 42.776 11.5633 42.7067 11.8403 42.5683V49.49H10.8016V43.6066ZM9.48606 44.2987C10.1092 44.1603 9.97075 43.9526 10.5247 43.6066V49.5592H9.48606V44.2987ZM8.10123 45.6831C8.10123 45.1985 8.58592 45.0601 8.93213 44.8525V49.5592H8.10123V45.6831ZM6.57792 46.306C6.99337 46.1676 7.2011 46.0291 7.61654 45.8215V49.5592H6.57792V46.306ZM29.0814 40.7687C29.0814 40.2842 29.7738 39.7996 30.12 39.592V49.5592C29.9122 49.4208 29.9122 49.4208 29.6353 49.4208H29.0814V40.7687ZM27.7658 42.0838C27.7658 41.5993 28.4582 41.1148 28.8044 40.9071V49.3516H27.7658V42.0838ZM26.3809 43.2605C26.3809 42.7067 26.9349 42.3607 27.4196 42.2222V49.3516H26.3809V43.2605ZM24.8576 44.4372C24.8576 43.9526 24.9961 44.0911 25.2731 43.8142C25.55 43.6066 25.6193 43.5373 25.8963 43.3989V49.3516H24.8576V44.4372ZM23.542 45.4754C23.542 44.9909 23.6805 45.1293 23.9575 44.8525C24.2345 44.6448 24.3037 44.5756 24.5807 44.4372V49.3516H23.542V45.4754ZM22.1572 46.5137C22.1572 45.9599 22.7804 45.7523 23.1958 45.4754V49.3516H22.1572V46.5137ZM20.6339 49.5592V47.5519C20.6339 46.9982 21.2571 46.7905 21.6725 46.5137V49.4208C21.2571 49.49 21.1878 49.5592 20.6339 49.5592ZM62.3864 38.4153L62.8019 39.3843C63.0096 40.2149 62.8711 48.3825 62.8711 49.4208C62.1095 48.9362 62.3864 48.3133 62.3864 47.0674V38.4153ZM15.0254 49.2131V40.9071C15.0254 39.7996 15.1638 39.3151 16.064 39.0383V47.3443C16.064 48.6594 16.341 49.0747 15.0254 49.2131ZM73.0496 47.2058C73.0496 46.7213 73.0496 46.3752 73.1881 46.0984C73.3958 45.4754 73.1188 45.6831 73.742 45.4754V48.5209H73.0496V47.2058ZM72.8419 47.6903L72.9111 48.5902H72.5649L72.8419 47.6903ZM73.9497 48.5209V45.4754C74.2267 45.7523 74.2959 45.7523 74.2959 46.306V47.9672C74.2267 48.521 73.9497 48.5209 73.9497 48.5209ZM16.4102 48.7286V39.7304C16.4102 38.4153 16.6179 38.2769 17.4488 37.7231V48.3825C16.8949 48.4517 16.9641 48.5902 16.4102 48.7286ZM61.5555 35.6466L61.971 36.7541C62.1095 37.2386 62.0402 37.8616 62.0402 38.3461V48.5209C61.2786 47.6903 61.5555 47.4827 61.5555 45.8215V35.6466ZM17.9335 48.0364V38.4153C17.9335 36.9618 18.072 36.8233 18.9721 36.2004V47.5519L17.9335 48.0364ZM60.7246 32.8087C60.7246 32.8087 60.7939 32.878 60.7939 32.9472C60.7939 33.0856 61.417 33.847 61.417 35.8543V47.5519C60.5169 46.8597 60.7246 46.0291 60.7246 44.5064V32.8087ZM19.3183 47.2058V37.2386C19.3183 35.6466 19.3183 35.5082 20.3569 34.8852V46.7213C19.9415 46.929 19.803 47.0674 19.3183 47.2058ZM72.5649 46.6521H72.2187C72.2187 45.6831 72.011 45.6831 72.7034 45.4754C72.7034 46.1676 72.5649 45.9599 72.5649 46.6521ZM20.6339 46.5137V36.0619C20.6339 34.3315 20.5647 34.2623 21.6725 33.5009V45.8215C21.3263 46.0291 20.9801 46.306 20.6339 46.5137ZM60.0322 30.2477L60.3784 30.9399C60.6554 31.9089 60.5862 32.7395 60.5862 33.7778V46.306C60.4477 46.0984 60.3092 46.0291 60.1707 45.6831C60.0322 45.2678 60.0322 45.2678 60.0322 44.7832V30.2477ZM22.1572 45.4754V34.6776C22.1572 32.878 22.0187 32.7395 23.1958 31.9781V44.8525C22.8496 45.0601 22.5034 45.2678 22.1572 45.4754ZM72.4264 41.7377H72.9111V44.0911H72.4264V41.7377ZM59.2013 26.8561L59.686 28.5865C59.7553 29.2787 59.686 30.2477 59.686 30.9399V44.7832C58.8551 43.8834 59.2013 42.4991 59.2013 40.6995V26.8561ZM70.6954 50.8743C70.6954 49.3515 70.5569 43.0528 70.8339 41.7377C70.9031 41.4608 70.9031 41.4608 70.9724 41.184V48.5209C71.0416 49.8361 71.2493 50.2514 70.6954 50.8743ZM73.9497 44.1603C73.9497 43.122 74.0882 42.6375 74.0882 41.8069C74.5037 42.0838 74.4344 41.7377 74.4344 43.4681C74.4344 43.9526 74.0882 43.9526 73.9497 44.1603ZM23.542 44.5064V33.3625C23.542 31.4936 23.3343 31.286 24.5807 30.4554V41.5993C24.5114 43.6066 24.8576 43.745 23.542 44.5064ZM24.8576 43.4681V31.7705C24.8576 30.1093 24.8576 29.5556 25.8963 28.8634V42.7067C25.55 42.9836 25.2038 43.2605 24.8576 43.4681ZM58.3704 23.5337C59.2013 24.8488 58.8551 31.286 58.8551 33.0164C58.8551 36.408 58.8551 39.7996 58.8551 43.1913C58.5782 42.9144 58.9244 43.3297 58.6474 42.9144C58.0935 42.0146 58.3704 34.8852 58.3704 33.7086C58.3704 30.2477 58.3704 26.8561 58.3704 23.5337ZM73.2573 43.8142H73.1188V41.8069H73.6035C73.465 42.4299 73.2573 43.0528 73.2573 43.8142ZM26.3809 42.0838C26.3809 41.1148 26.2425 28.725 26.4502 28.102C26.5194 27.8944 27.2118 27.133 27.3503 26.9945V38.969C27.4196 40.6302 27.6965 41.7377 26.3809 42.0838ZM57.5395 19.9344H57.678C57.678 20.9727 58.0242 21.2495 58.0242 22.2878C58.1627 27.9636 58.0242 35.6466 58.0242 41.3916C57.8857 41.2532 57.8857 41.3224 57.7473 40.9763C57.2626 40.1457 57.5395 31.9089 57.5395 30.8707C57.5395 27.2714 57.5395 23.6029 57.5395 19.9344ZM73.0496 38.2076H73.742V40.561H73.0496V38.2076ZM27.7658 40.9071V28.5865C27.7658 28.1712 27.6965 26.9253 27.835 26.5792C27.9043 26.3024 28.5274 25.541 28.8044 25.3333V40.2149C28.3889 40.4918 28.112 40.6995 27.7658 40.9071ZM72.9111 38.2076V40.561H72.4264C72.4264 39.8689 72.4264 39.7304 72.2879 39.1075C72.1495 38.3461 72.1495 38.2769 72.9111 38.2076ZM73.9497 38.2076H74.0882V39.0383H73.9497V38.2076ZM29.0814 39.7304V26.8561C29.0814 24.5027 28.9429 24.7796 30.12 23.4645V36.3388C30.12 38.4845 30.4662 38.8306 29.0814 39.7304ZM56.6394 16.4044L56.8471 16.8889C57.4011 18.5501 57.1241 25.8871 57.1241 27.7559C57.1241 31.7013 57.1241 35.6466 57.1241 39.592L56.9856 39.3843C56.9856 39.3843 56.9164 39.1767 56.8471 39.1767C56.2932 38.0692 56.5702 29.6248 56.5702 28.3097C56.6394 24.2951 56.6394 20.3497 56.6394 16.4044ZM30.6047 38.0692V25.3333C30.6047 23.5337 30.3277 22.5647 31.4356 21.8033C31.4356 24.7796 31.574 33.9854 31.4356 36.6849C31.4356 37.5847 31.1586 37.6539 30.6047 38.0692ZM55.8085 12.5282H55.947C55.947 13.6357 56.2932 13.9126 56.2932 15.2277L56.0855 37.1002C55.5315 35.9927 55.8085 26.7177 55.8085 25.3333C55.8085 21.1111 55.8085 16.8197 55.8085 12.5282ZM31.9895 36.5464V23.1876C31.9895 20.765 31.7818 21.0419 33.0281 19.6576V35.2313C32.8896 35.6466 32.3357 36.2696 31.9895 36.5464ZM50.2692 26.2332H51.2386V35.1621H50.2V26.2332H50.2692ZM48.8844 26.2332H49.923V35.1621H48.8844V26.2332ZM47.3611 26.2332H48.3997V35.1621H47.3611V26.2332ZM51.5848 35.1621V26.3716L52.208 27.9636C52.6234 29.2095 52.4157 33.224 52.4157 34.6776C51.8617 34.816 52.0695 34.816 51.5848 35.1621ZM46.184 27.4098C46.9456 27.0638 46.2532 27.5483 46.5994 26.7869C46.7379 26.51 46.5302 26.7177 46.7379 26.4408C46.8764 26.2332 46.8764 26.3024 47.0149 26.2332V35.1621C46.5302 34.816 46.8071 34.816 46.184 34.6776V27.4098ZM33.3051 34.816L33.3743 19.1038C33.4436 18.7577 33.9975 17.9271 34.3437 17.7195V33.4317C34.2052 33.9162 33.6513 34.6084 33.3051 34.816ZM34.8284 32.8087V19.5883C34.8284 17.7195 34.4822 16.6812 35.6593 15.8506V29.071C35.6593 30.9399 36.0055 32.0474 34.8284 32.8087ZM36.2132 30.9399L36.2825 15.0893C36.3517 14.6047 36.8364 13.9818 37.2518 13.7049L37.1826 29.5556C37.0441 30.0401 36.6287 30.663 36.2132 30.9399ZM37.5288 29.071L37.598 13.082C37.6673 12.7359 38.2212 11.9053 38.5674 11.6976L38.4982 27.6867C38.4289 28.0328 38.2904 28.102 38.0135 28.4481L37.5288 29.071ZM38.9136 27.0638C38.9136 25.9563 38.7751 11.8361 38.9829 11.0747C39.1213 10.5902 39.606 9.898 39.9522 9.62113C39.9522 10.7286 40.0907 24.918 39.883 25.6102L39.2598 26.6485C39.0521 26.8561 39.0521 26.9253 38.9136 27.0638ZM40.4369 24.7104V11.0055C40.4369 9.69035 40.2292 8.30601 41.4755 7.47541C41.4755 8.58288 41.614 22.6339 41.4063 23.326L40.7831 24.3643C40.5754 24.5027 40.5754 24.5719 40.4369 24.7104ZM50.2692 22.1494C50.2692 21.7341 50.5462 22.1494 50.3384 22.1494C50.3384 22.1494 50.2692 22.6339 50.2692 22.1494ZM48.8844 17.235L49.2306 18.0656C49.8537 20.1421 49.923 20.0729 49.923 22.2878H48.8844V17.235ZM47.3611 15.02H48.3997V22.2878H47.3611V15.02ZM51.5848 22.2878V15.02C52.208 15.1585 52.6234 15.4353 52.6234 16.1967V21.2495C52.6234 21.8725 52.0695 22.2186 51.5848 22.2878ZM54.9776 8.44444H55.1161C55.1161 9.4827 55.5315 10.3825 55.6008 11.3515V35.6466C54.9776 34.8852 55.2546 29.9709 55.2546 29.071C55.2546 27.2022 55.4623 23.8798 55.2546 22.1494C55.1161 21.1803 54.9776 21.9417 54.9084 20.8342L54.9776 8.44444ZM45.9762 20.9727V16.7505C45.9762 16.612 46.5302 15.3661 47.0149 15.0893V22.357C46.3917 22.1494 45.9762 21.7341 45.9762 20.9727ZM43.2758 49.5592L43.1373 21.6648C43.2066 21.1803 43.4835 20.8342 43.8298 20.4882C43.8298 22.4262 43.2758 20.0729 43.3451 23.5337L43.2758 49.5592ZM41.7525 22.4954C41.7525 21.388 41.614 7.33698 41.8218 6.64481L42.4449 5.60656C42.5834 5.39891 42.6526 5.39891 42.7219 5.26047C42.7219 6.36794 42.8604 20.3497 42.6526 21.1111C42.5834 21.4572 42.0295 22.2878 41.7525 22.4954ZM50.2692 19.3115V15.0893H51.2386V22.357C50.8231 22.0109 50.7539 21.5264 50.6154 20.9727C50.4769 20.3497 50.2692 19.9344 50.2692 19.3115ZM43.1373 20.2805C43.1373 16.8197 42.9989 8.51366 43.1373 5.19126C43.2066 4.29144 43.4143 4.15301 43.8298 3.66849C43.8298 6.43716 43.9682 16.1967 43.8298 18.7577C43.7605 19.3807 43.6913 19.6576 43.1373 20.2805ZM49.0229 15.02H49.8537L49.5768 17.5118L49.0229 15.02ZM47.3611 11.8361C47.3611 11.4208 47.638 11.8361 47.4303 11.8361C47.4303 11.8361 47.3611 12.3206 47.3611 11.8361ZM50.2692 9.27505C50.2692 8.79053 50.7539 7.82149 51.1001 7.33698C51.3078 6.99089 51.1693 7.19854 51.3078 7.06011V11.7668H50.2692V9.27505ZM49.3691 11.9745H48.8844C48.8844 11.1439 49.4383 10.1056 49.923 9.75956C49.923 10.6594 50.2 11.9745 49.3691 11.9745ZM51.5848 11.8361V6.57559C51.654 5.95264 51.931 5.88342 52.0695 5.19126H52.6234V11.4208C52.0695 11.49 51.8617 11.5592 51.5848 11.8361ZM45.9762 6.22951C46.3917 6.85246 47.0149 9.82878 47.0149 11.8361C46.5994 11.5592 46.6686 11.49 45.9762 11.49V6.22951ZM47.3611 8.44444V5.05282H48.3997C48.3997 6.85246 48.6074 10.1056 48.2612 11.6284C47.7765 11.1439 47.3611 9.20583 47.3611 8.44444ZM48.8844 10.1749V5.05282H49.923C49.923 7.06011 50.1307 7.82149 49.5075 9.0674L49.0921 9.82878C48.8844 10.1749 49.0229 9.96721 48.8844 10.1749ZM47.0149 5.05282V7.40619C47.0149 7.33698 46.9456 7.26776 46.9456 7.26776L46.5994 6.09107C46.3917 5.19126 46.3917 5.39891 47.0149 5.05282ZM50.2692 7.61384V5.05282H51.2386C51.2386 5.95264 50.7539 6.99089 50.2692 7.61384ZM44.4529 0.484517C44.4529 0.969035 44.176 0.899818 43.9682 1.31512C43.6913 1.93807 43.899 1.93807 43.6913 2.56102C43.4835 3.3224 34.6899 15.9891 33.1666 18.204L28.112 24.9872C25.6193 28.3097 20.7032 34.0546 17.795 36.5464L13.1558 40.6995C10.1092 43.3989 4.50069 47.5519 0.830896 49.0055C0.346207 49.1439 0 49.2131 0 49.6976V57.1038C0.830896 57.1038 0.830896 56.9654 1.66179 56.8962C2.3542 56.8962 3.04662 56.8962 3.66979 56.8962C4.50069 56.8962 4.63917 56.7577 5.53931 56.6885C6.23172 56.6885 6.92413 56.6885 7.5473 56.6885C8.3782 56.6885 8.3782 56.5501 9.2091 56.4809C9.90151 56.4809 10.5939 56.5501 11.2171 56.4809C11.9787 56.4117 12.1172 56.2732 13.0866 56.2732L18.8336 56.1348C25.2731 55.5811 31.7818 55.6503 38.2904 55.6503V54.612C40.0907 54.612 41.3371 54.2659 43.2066 54.2659V65.9636C43.2066 67.8324 43.0681 69.0091 43.0681 70.878C41.8218 70.9472 42.0295 72.1239 42.0295 73.439L37.875 73.7159C36.5594 73.9235 34.8284 73.8543 33.859 74.2696V75.1002C34.6899 75.1694 35.3131 75.3771 36.2132 75.4463C42.9296 75.8616 52.5542 75.5847 59.5475 75.5847C61.4863 75.5847 62.8019 75.2386 64.4637 75.1002V74.2696C63.702 73.9235 57.6088 73.439 56.3624 73.439C56.2239 72.7468 56.2239 72.7468 56.2239 71.9162C56.1547 71.224 56.1547 71.0856 55.5315 70.878C55.5315 67.8324 55.1853 68.663 55.1853 67.8324V53.7814C56.0162 53.7814 56.0855 53.643 57.0548 53.643C60.4477 53.643 65.433 53.643 68.4797 54.4044C68.8951 54.4736 69.2413 54.612 69.6568 54.7505C70.1414 54.9581 70.3492 55.0273 70.9031 55.1658V60.0801C70.8339 61.6029 70.5569 60.357 70.5569 61.949L68.4104 62.0182C67.5795 62.2259 67.995 61.949 67.6488 62.4335C69.1721 63.1949 76.2347 62.5719 78.3119 62.5719V62.0874L75.6115 61.949C75.6115 61.5337 75.6115 61.7413 75.5423 61.3953C75.4038 60.98 75.473 61.326 75.3346 60.7723C75.0576 59.7341 75.1268 57.2423 75.1268 56.0656H75.9577C75.9577 53.9891 75.2653 55.3042 75.1268 53.8506L74.7806 36.6157C73.465 37.1002 75.6115 37.1002 72.2187 37.1002C71.8032 37.1002 71.734 36.8233 71.3878 36.6157C71.0416 37.2386 70.1414 41.8761 69.726 43.3989C69.3106 44.8525 68.2719 48.7978 67.3718 49.49C67.2333 48.9362 66.4024 47.5519 66.0562 46.929C65.6408 45.9599 65.2946 45.1985 64.8791 44.1603C61.694 36.2696 58.3012 21.5956 56.4317 13.0127C56.0162 10.3825 54.7699 5.39891 54.8391 2.83789C54.8391 0.692168 54.8391 1.86885 54.4237 0.761384C54.0775 -0.20765 54.4237 0.0692168 53.662 0C53.662 0.415301 53.7313 0.761384 53.3158 1.17668C52.8311 1.73042 52.7619 1.38434 52.0695 1.59199C51.5155 1.79964 51.8617 2.00729 51.3078 2.00729C49.9922 2.00729 48.1227 2.28415 46.9456 1.79964C45.7685 1.2459 45.9762 1.73042 45.5608 1.17668C45.0761 0.692168 45.1453 0.692168 45.1453 0H44.4529V0.484517Z" fill="#FFFEF9"/>
<path d="M95.0683 27.6175C96.73 27.6175 98.2533 27.4099 99.7074 26.7177C101.092 26.0947 102.339 25.2641 103.1 24.1567C104 22.98 104.416 21.5956 104.416 20.1421C104.416 17.6503 103.1 15.643 100.608 14.3971C98.8073 13.4281 95.7607 12.9435 94.3758 12.6667C90.8445 11.9745 88.6288 11.0055 88.6288 8.58289C88.6288 7.26777 89.5289 6.02187 91.1215 5.32971C93.4065 4.36067 97.2147 4.42989 101.161 7.47542L103.308 4.98362C101.092 3.2532 98.5996 2.14573 96.1069 1.73043C93.8219 1.38435 91.5369 1.592 89.6674 2.49182C88.3518 3.04555 87.244 3.87615 86.4823 4.9144C85.6514 6.02187 85.236 7.26777 85.236 8.58289C85.236 10.9363 86.4823 12.8743 88.7673 14.1895C90.4983 15.0893 94.7913 15.9199 94.999 15.9891C97.9764 16.5428 101.023 17.5119 101.023 20.2113C101.023 22.4262 99.292 23.4645 98.3226 23.8798C96.7993 24.5027 94.9298 24.6412 93.0602 24.2951C90.7753 23.8798 88.5596 22.7723 86.5516 21.1111L84.2666 23.5337C86.7593 25.541 89.5289 26.8561 92.3678 27.4099C93.268 27.5483 94.1681 27.6175 95.0683 27.6175ZM122.903 13.082C121.172 11.49 118.887 10.5902 116.464 10.5902C114.04 10.5902 111.755 11.4208 109.955 13.082C108.224 14.7432 107.255 16.8889 107.255 19.1731C107.255 21.4572 108.224 23.6029 109.955 25.2641C111.686 26.8561 113.971 27.7559 116.464 27.7559C118.887 27.7559 121.172 26.8561 122.903 25.2641C124.634 23.6029 125.604 21.4572 125.604 19.1731C125.604 16.8889 124.634 14.7432 122.903 13.082ZM116.464 24.7104C113.209 24.7104 110.578 22.2186 110.578 19.1731C110.578 16.1275 113.209 13.7049 116.464 13.7049C119.718 13.7049 122.349 16.1275 122.349 19.1731C122.349 22.2186 119.718 24.7104 116.464 24.7104ZM132.32 27.4099V1.10748H129.066V27.4099H132.32ZM139.452 25.6102C140.975 26.9946 142.983 27.7559 145.199 27.7559C147.345 27.7559 149.353 27.0638 150.877 25.6102C152.4 24.2259 153.3 22.357 153.3 20.3497V11.0055H150.046V20.419C150.046 22.8415 147.899 24.7796 145.199 24.7796C142.499 24.7796 140.352 22.8415 140.352 20.419V11.0055H137.098V20.419C137.098 22.357 137.929 24.2259 139.452 25.6102ZM165.694 27.4099H169.572L168.741 24.5027H165.833C164.448 24.5027 163.202 23.2568 163.202 21.9417V13.9126H168.603V11.0055H163.202V4.63754H159.947V11.0055H157.316V13.9126H159.947V21.9417C159.947 24.9873 162.509 27.4099 165.694 27.4099ZM174.903 8.30603C176.081 8.30603 177.05 7.40621 177.05 6.22952C177.05 5.12206 176.081 4.22224 174.903 4.22224C173.657 4.22224 172.757 5.12206 172.757 6.22952C172.688 7.40621 173.657 8.30603 174.903 8.30603ZM173.242 27.4099H176.496V11.0055H173.242V27.4099ZM196.438 13.082C194.707 11.49 192.422 10.5902 189.998 10.5902C187.575 10.5902 185.29 11.4208 183.489 13.082C181.758 14.7432 180.789 16.8889 180.789 19.1731C180.789 21.4572 181.758 23.6029 183.489 25.2641C185.22 26.8561 187.505 27.7559 189.998 27.7559C192.422 27.7559 194.707 26.8561 196.438 25.2641C198.169 23.6029 199.138 21.4572 199.138 19.1731C199.138 16.8889 198.169 14.7432 196.438 13.082ZM189.929 24.7104C186.674 24.7104 184.043 22.2186 184.043 19.1731C184.043 16.1275 186.674 13.7049 189.929 13.7049C193.183 13.7049 195.814 16.1275 195.814 19.1731C195.814 22.2186 193.183 24.7104 189.929 24.7104ZM216.864 12.9435C215.271 11.4208 213.125 10.6594 210.84 10.6594C208.97 10.6594 207.17 11.49 205.716 12.5282V10.9363H202.462V27.3406H205.716V18.5501C205.716 15.8507 208.07 13.6357 210.84 13.6357C213.679 13.6357 215.964 15.8507 215.964 18.5501V27.3406H219.218V18.5501C219.356 16.4044 218.456 14.4663 216.864 12.9435ZM234.797 20.0037C234.382 19.5191 233.966 19.1038 232.997 18.6193C232.097 18.1348 228.981 17.5119 228.981 17.5119C226.627 17.0273 225.727 16.4736 225.727 15.3661C225.727 14.7432 226.211 14.051 226.973 13.7049C227.527 13.4281 228.15 13.3588 228.842 13.3588C229.535 13.3588 231.058 13.5665 232.789 14.8124L234.728 12.7359C233.343 11.6976 231.681 11.0055 230.02 10.7978C229.604 10.7286 229.119 10.7286 228.704 10.7286C227.596 10.7286 226.627 10.9363 225.657 11.3516C224.688 11.7669 223.996 12.2514 223.511 12.9435C222.957 13.7049 222.68 14.5355 222.68 15.4354C222.68 17.0966 223.511 18.4117 225.103 19.2423C226.142 19.796 229.05 20.3497 229.189 20.3497C231.543 20.765 232.581 21.4572 232.581 22.5647C232.581 23.6721 231.681 24.2259 231.197 24.4335C230.574 24.7104 229.881 24.8488 229.189 24.8488C228.15 24.8488 226.419 24.5027 224.342 22.9108L222.265 25.0565C223.788 26.3024 225.588 27.0638 227.527 27.4099C228.15 27.5483 228.704 27.6175 229.327 27.6175C230.435 27.6175 231.543 27.4099 232.443 26.9946C233.482 26.51 234.243 25.9563 234.797 25.1949C235.351 24.4335 235.628 23.5337 235.628 22.6339C235.559 21.5956 235.282 20.765 234.797 20.0037Z" fill="#FFFEF9"/>
<path d="M88.352 75.8616H89.1829V69.8397H88.352V71.9854H85.0284V69.8397H84.1975V75.8616H85.0284V72.6776H88.352V75.8616ZM96.384 75.8616H97.2841L94.7914 69.8397H93.9605L91.4679 75.8616H92.368L93.0604 74.1311H95.6916L96.384 75.8616ZM95.3454 73.3698H93.3374L94.376 70.9472L95.3454 73.3698ZM104.762 75.8616H105.662V69.8397H104.831V74.6157L101.369 69.8397H100.469V75.8616H101.3V71.0856L104.762 75.8616ZM108.57 75.8616H110.648C112.448 75.8616 113.971 74.4772 113.971 72.816C113.971 71.1548 112.517 69.7705 110.648 69.7705H108.57V75.8616ZM110.648 75.1694H109.401V70.6011H110.648C112.033 70.6011 113.14 71.6393 113.14 72.8852C113.14 74.1311 112.033 75.1694 110.648 75.1694ZM119.441 75.9308C119.857 75.9308 120.203 75.8616 120.549 75.7231C120.895 75.5847 121.172 75.377 121.38 75.1002C121.588 74.8233 121.657 74.4772 121.657 74.1311C121.657 73.5774 121.38 73.0929 120.757 72.7468C120.341 72.5392 119.649 72.4007 119.303 72.3315C118.472 72.1239 117.918 71.9162 117.918 71.3625C117.918 71.0856 118.126 70.7395 118.541 70.6011C119.095 70.3934 119.995 70.3934 120.895 71.0856L121.38 70.5319C120.826 70.1166 120.272 69.8397 119.649 69.7705C119.095 69.7013 118.541 69.7705 118.126 69.9781C117.849 70.1166 117.572 70.3242 117.364 70.5319C117.156 70.8087 117.087 71.0856 117.087 71.4317C117.087 71.9854 117.364 72.4699 117.918 72.7468C118.333 72.9545 119.372 73.1621 119.372 73.1621C120.065 73.3005 120.826 73.5082 120.826 74.1311C120.826 74.6157 120.411 74.8925 120.203 75.031C119.857 75.1694 119.372 75.2386 118.957 75.1002C118.403 74.9617 117.918 74.7541 117.433 74.3388L116.879 74.8925C117.503 75.377 118.126 75.6539 118.818 75.7923C118.957 75.9308 119.164 75.9308 119.441 75.9308ZM131.489 69.632C129.62 69.632 128.097 71.0856 128.097 72.816C128.097 74.5464 129.62 76 131.489 76C133.359 76 134.882 74.6157 134.882 72.816C134.882 71.0856 133.359 69.632 131.489 69.632ZM131.489 75.2386C130.104 75.2386 128.927 74.1311 128.927 72.816C128.927 71.5009 130.035 70.3934 131.489 70.3934C132.874 70.3934 134.051 71.5009 134.051 72.816C134.051 74.1311 132.943 75.2386 131.489 75.2386ZM142.499 75.8616H143.399V69.8397H142.568V74.6157L139.106 69.8397H138.206V75.8616H139.037V71.0856L142.499 75.8616ZM152.816 72.6776C153.508 72.5392 153.993 71.9854 153.993 71.2933C153.993 70.878 153.854 70.5319 153.508 70.255C153.231 69.9781 152.816 69.8397 152.4 69.8397H150.184V75.8616H150.946V72.6776H151.846L154.339 75.8616H155.239L152.816 72.6776ZM151.015 70.5319H152.469C152.885 70.5319 153.231 70.878 153.231 71.224C153.231 71.6393 152.885 71.9162 152.469 71.9162H151.015V70.5319ZM157.663 75.8616H161.679V75.1002H158.493V72.6776H161.332V71.9854H158.493V70.5319H161.748V69.7705H157.663V75.8616ZM169.018 75.8616H169.918L167.426 69.8397H166.595L164.102 75.8616H165.002L165.695 74.1311H168.326L169.018 75.8616ZM167.98 73.3698H165.972L167.01 70.9472L167.98 73.3698ZM173.034 75.8616H177.396V75.1002H173.865V69.7705H173.034V75.8616ZM189.721 75.8616H190.621L192.422 69.8397H191.591L190.067 74.8925L188.336 71.9854H187.436L185.636 74.8925L184.113 69.8397H183.282L185.082 75.8616H185.982L187.852 72.7468L189.721 75.8616ZM197.546 69.632C195.676 69.632 194.153 71.0856 194.153 72.816C194.153 74.5464 195.676 76 197.546 76C199.415 76 200.938 74.6157 200.938 72.816C200.938 71.0856 199.415 69.632 197.546 69.632ZM197.546 75.2386C196.161 75.2386 194.984 74.1311 194.984 72.816C194.984 71.5009 196.161 70.3934 197.546 70.3934C198.93 70.3934 200.107 71.5009 200.107 72.816C200.107 74.1311 199 75.2386 197.546 75.2386ZM206.339 72.6776C207.032 72.5392 207.516 71.9854 207.516 71.2933C207.516 70.878 207.378 70.5319 207.032 70.255C206.755 69.9781 206.339 69.8397 205.924 69.8397H203.708V75.8616H204.47V72.6776H205.37L207.863 75.8616H208.763L206.339 72.6776ZM204.539 70.5319H205.993C206.408 70.5319 206.755 70.878 206.755 71.224C206.755 71.6393 206.408 71.9162 205.993 71.9162H204.539V70.5319ZM212.225 75.8616H216.587V75.1002H213.056V69.7705H212.225V75.8616ZM219.287 75.8616H221.365C223.165 75.8616 224.688 74.4772 224.688 72.816C224.688 71.1548 223.234 69.7705 221.365 69.7705H219.287V75.8616ZM221.365 75.1694H220.118V70.6011H221.365C222.749 70.6011 223.857 71.6393 223.857 72.8852C223.926 74.1311 222.749 75.1694 221.365 75.1694ZM231.266 75.8616H235.282V75.1002H232.097V72.6776H234.936V71.9854H232.097V70.5319H235.351V69.7705H231.266V75.8616ZM242.968 75.8616H243.937L241.514 72.6776L243.729 69.7705H242.76L241.098 71.9854L239.437 69.7705H238.467L240.683 72.6776L238.259 75.8616H239.229L241.168 73.3005L242.968 75.8616ZM247.053 75.8616H247.884V72.6776H249.338C250.169 72.6776 250.861 72.0546 250.861 71.224C250.861 70.8087 250.723 70.4627 250.377 70.1858C250.1 69.9089 249.684 69.7705 249.269 69.7705H247.053V75.8616ZM249.338 71.9854H247.884V70.6011H249.338C249.753 70.6011 250.03 70.9472 250.03 71.2933C250.03 71.6393 249.753 71.9854 249.338 71.9854ZM253.146 75.8616H257.162V75.1002H253.977V72.6776H256.816V71.9854H253.977V70.5319H257.232V69.7705H253.146V75.8616ZM263.186 72.6776C263.879 72.5392 264.363 71.9854 264.363 71.2933C264.363 70.878 264.225 70.5319 263.879 70.255C263.602 69.9781 263.186 69.8397 262.771 69.8397H260.555V75.8616H261.317V72.6776H262.217L264.71 75.8616H265.61L263.186 72.6776ZM261.317 70.5319H262.771C263.186 70.5319 263.533 70.878 263.533 71.224C263.533 71.6393 263.186 71.9162 262.771 71.9162H261.317V70.5319ZM268.795 75.8616H269.626V69.8397H268.795V75.8616ZM273.711 75.8616H277.727V75.1002H274.542V72.6776H277.381V71.9854H274.542V70.5319H277.796V69.7705H273.711V75.8616ZM285.136 75.8616H286.036V69.8397H285.205V74.6157L281.743 69.8397H280.843V75.8616H281.674V71.0856L285.136 75.8616ZM292.752 75.2386C291.298 75.2386 290.19 74.1311 290.19 72.816C290.19 71.5009 291.368 70.3934 292.752 70.3934C293.583 70.3934 294.345 70.7395 294.83 71.3625L295.453 70.9472C294.83 70.1166 293.791 69.7013 292.752 69.7013C290.883 69.7013 289.36 71.1548 289.36 72.8852C289.36 74.6157 290.883 76.0692 292.752 76.0692C293.791 76.0692 294.83 75.5847 295.453 74.8233L294.83 74.408C294.345 74.8925 293.583 75.2386 292.752 75.2386ZM298.915 75.8616H302.931V75.1002H299.746V72.6776H302.585V71.9854H299.746V70.5319H303V69.7705H298.915V75.8616Z" fill="#FFFEF9"/>
<path d="M104.416 58.2113H108.155L97.561 32.6703H93.9605L83.4358 58.2113H87.1056L90.1522 50.8051H101.369L104.416 58.2113ZM99.9845 47.6904H91.4678L95.7607 37.3771L99.9845 47.6904ZM114.733 41.8069H111.409V58.2113H114.733V49.49C114.733 46.7213 117.295 44.5756 120.341 44.5756L121.172 41.4609C119.164 41.4609 115.841 42.3607 114.733 43.5374V41.8069ZM136.405 53.2277C135.298 54.612 133.567 55.5811 131.628 55.5811C128.373 55.5811 125.673 53.0893 125.673 50.0437C125.673 46.9982 128.304 44.5064 131.628 44.5064C133.567 44.5064 135.298 45.4062 136.405 46.7905L139.037 44.9909C138.76 44.6448 138.483 44.2987 138.136 44.0219C136.405 42.4299 134.12 41.5301 131.628 41.5301C129.135 41.5301 126.85 42.3607 125.05 44.0219C123.319 45.6831 122.349 47.8288 122.349 50.1129C122.349 52.3971 123.319 54.5428 125.05 56.204C126.781 57.796 129.135 58.6958 131.628 58.6958C134.12 58.6958 136.405 57.8652 138.136 56.204C138.483 55.8579 138.76 55.5118 139.106 55.1658L136.405 53.2277ZM156.624 43.8142C155.031 42.2914 152.885 41.5301 150.6 41.5301C148.73 41.5301 146.93 42.3607 145.407 43.3989V31.9089H142.083V58.2113H145.407V49.4208C145.407 46.7213 147.761 44.5064 150.6 44.5064C153.508 44.5064 155.793 46.7213 155.793 49.4208V58.2113H159.117V49.4208C159.117 47.2751 158.216 45.2678 156.624 43.8142ZM165.556 39.1767C166.733 39.1767 167.702 38.2769 167.702 37.1002C167.702 35.9927 166.733 35.0929 165.556 35.0929C164.31 35.0929 163.34 35.9927 163.34 37.1002C163.41 38.2077 164.31 39.1767 165.556 39.1767ZM163.894 58.2113H167.218V41.8069H163.894V58.2113ZM180.027 58.2113H183.905L183.074 55.3042H180.097C178.712 55.3042 177.465 54.0583 177.465 52.7432V44.7833H182.866V41.8762H177.465V35.5082H174.142V41.8762H171.511V44.7833H174.142V52.8124C174.211 55.8579 176.842 58.2113 180.027 58.2113ZM201.769 48.1749C201.492 46.6521 200.661 45.337 199.553 44.2295C197.961 42.6375 195.884 41.7377 193.529 41.7377C191.245 41.7377 189.098 42.6375 187.575 44.2295C186.467 45.337 185.705 46.7213 185.359 48.1749C185.221 48.7978 185.151 49.49 185.151 50.1129C185.151 50.3898 185.151 50.5975 185.221 50.8743C185.359 52.8124 186.19 54.612 187.575 56.0656C189.098 57.6576 191.245 58.5574 193.529 58.5574C195.191 58.4882 196.853 58.0729 198.169 57.3115C199.069 56.827 199.83 56.204 200.523 55.5118L197.753 53.9891C196.645 55.0273 195.053 55.6503 193.46 55.7195C190.898 55.6503 188.752 53.643 188.336 50.9435V50.8743H201.908C202.046 50.459 202.046 49.6284 201.769 48.1749ZM188.683 48.1749L188.752 48.1057C189.583 45.9599 191.521 44.5756 193.668 44.5756C195.814 44.5756 197.753 46.0292 198.584 48.1057L198.653 48.1749H188.683ZM218.456 53.2277C217.348 54.612 215.617 55.5811 213.679 55.5811C210.424 55.5811 207.724 53.0893 207.724 50.0437C207.724 46.9982 210.355 44.5064 213.679 44.5064C215.617 44.5064 217.348 45.4062 218.456 46.7905L221.088 44.9909C220.811 44.6448 220.534 44.2987 220.187 44.0219C218.456 42.4299 216.171 41.5301 213.679 41.5301C211.186 41.5301 208.901 42.3607 207.101 44.0219C205.37 45.6831 204.4 47.8288 204.4 50.1129C204.4 52.3971 205.37 54.5428 207.101 56.204C208.832 57.796 211.186 58.6958 213.679 58.6958C216.171 58.6958 218.456 57.8652 220.187 56.204C220.534 55.8579 220.811 55.5118 221.157 55.1658L218.456 53.2277ZM231.474 58.2113H235.351L234.52 55.3042H231.543C230.158 55.3042 228.912 54.0583 228.912 52.7432V44.7833H234.313V41.8762H228.912V35.5082H225.588V41.8762H222.957V44.7833H225.588V52.8124C225.657 55.8579 228.219 58.2113 231.474 58.2113ZM240.683 56.4809C242.206 57.8652 244.283 58.6266 246.43 58.6266C248.576 58.6266 250.654 57.9344 252.177 56.4809C253.7 55.0965 254.6 53.2277 254.6 51.2204V41.8069H251.346V51.2204C251.346 53.643 249.13 55.5811 246.499 55.5811C243.799 55.5811 241.652 53.643 241.652 51.2204V41.8069H238.329V51.2204C238.329 53.2277 239.16 55.0965 240.683 56.4809ZM262.702 41.8069H259.378V58.2113H262.702V49.49C262.702 46.7213 265.263 44.5756 268.31 44.5756L269.141 41.4609C267.133 41.4609 263.809 42.3607 262.702 43.5374V41.8069ZM286.659 48.1749C286.382 46.6521 285.551 45.337 284.443 44.2295C282.851 42.6375 280.774 41.7377 278.419 41.7377C276.134 41.7377 273.988 42.6375 272.465 44.2295C271.357 45.337 270.595 46.7213 270.249 48.1749C270.11 48.7978 270.041 49.49 270.041 50.1129C270.041 50.3898 270.041 50.5975 270.11 50.8743C270.249 52.8124 271.08 54.612 272.465 56.0656C273.988 57.6576 276.134 58.5574 278.419 58.5574C280.081 58.4882 281.743 58.0729 283.058 57.3115C283.959 56.827 284.72 56.204 285.413 55.5118L282.643 53.9891C281.535 55.0273 279.943 55.6503 278.35 55.7195C275.788 55.6503 273.642 53.643 273.226 50.9435V50.8743H286.798C286.936 50.459 286.936 49.6284 286.659 48.1749ZM273.572 48.1749L273.642 48.1057C274.473 45.9599 276.411 44.5756 278.558 44.5756C280.704 44.5756 282.643 46.0292 283.474 48.1057L283.543 48.1749H273.572Z" fill="#FFFEF9"/>
<path d="M287.559 40.2842V27.7559H286.313L283.959 29.694L284.859 30.9399L286.105 29.9016V40.2842H287.559Z" fill="#FFFEF9"/>
<path d="M293.375 27.4098C291.298 27.4098 289.567 29.2095 289.567 31.4936V36.3388C289.567 38.6229 291.298 40.4226 293.375 40.4226C295.453 40.4226 297.184 38.6229 297.184 36.3388V31.4936C297.184 29.2095 295.522 27.4098 293.375 27.4098ZM295.799 36.3388C295.799 37.7231 294.76 38.8998 293.445 38.8998C292.129 38.8998 291.09 37.7231 291.09 36.3388V31.4936C291.09 30.1093 292.129 28.9326 293.445 28.9326C294.76 28.9326 295.799 30.1093 295.799 31.4936V36.3388Z" fill="#FFFEF9"/>
<path d="M302.446 40.2842V27.7559H301.2L298.845 29.694L299.676 30.9399L300.923 29.9016V40.2842H302.446Z" fill="#FFFEF9"/>
<path d="M84.3359 63.9563H302.031" stroke="#C5C6C6" stroke-width="0.5669" stroke-miterlimit="10"/>
<path d="M287.213 40.1457V27.7559H286.036L283.751 29.6248L284.582 30.8707L285.759 29.8324V40.1457H287.213ZM292.822 27.4098C290.814 27.4098 289.221 29.2095 289.221 31.4244V36.2696C289.221 38.4845 290.814 40.3534 292.822 40.3534C294.83 40.3534 296.422 38.5537 296.422 36.2696V31.4244C296.422 29.2095 294.76 27.4098 292.822 27.4098ZM295.037 36.2696C295.037 37.6539 293.999 38.8306 292.752 38.8306C291.506 38.8306 290.467 37.6539 290.467 36.2696V31.4244C290.467 30.0401 291.506 28.8634 292.752 28.8634C293.999 28.8634 295.037 30.0401 295.037 31.4244V36.2696ZM301.408 40.1457V27.7559H300.23L297.945 29.6248L298.776 30.8707L299.953 29.8324V40.1457H301.408Z" fill="#FFFEF9"/>
</g>
<defs>
<clipPath id="clip0_1_320">
<rect width="303" height="76" fill="white"/>
</clipPath>
</defs>
</svg>
