<svg width="270" height="70" viewBox="0 0 270 70" fill="none" xmlns="http://www.w3.org/2000/svg">
<g clip-path="url(#clip0_1_340)">
<path fill-rule="evenodd" clip-rule="evenodd" d="M41.4625 63.6885C41.4625 62.6685 43.6837 63.051 45.8432 63.051C46.6453 63.051 46.4602 64.3898 46.4602 65.2186H41.4625V63.6885ZM43.9922 59.7996L45.9666 62.1585H42.0178C42.2029 61.6485 43.5603 60.1184 43.9922 59.7996ZM44.9177 59.0346C44.9177 58.2058 46.09 56.9945 46.707 56.5483V61.3934C46.5219 61.2659 46.0283 60.6284 45.7815 60.3097C45.5964 60.1184 44.9177 59.2896 44.9177 59.0346ZM41.154 61.2022V56.5483C41.6476 56.6758 43.1284 58.3333 43.1284 59.0346C43.1284 59.4171 42.5114 59.8634 42.2646 60.1822C41.8944 60.6284 41.7093 61.0747 41.154 61.2022ZM64.3533 55.4645H66.0192V56.102H64.3533V55.4645ZM42.0795 55.592H45.8432C45.6581 56.2933 44.3624 57.6958 44.0539 57.9508C43.4369 57.5683 42.3263 56.1658 42.0795 55.592ZM65.0937 54.1894C65.4639 54.4445 65.5873 54.4444 65.7107 54.9545H64.6618C64.8469 54.6995 64.9086 54.572 65.0937 54.1894ZM43.9922 52.1494C44.1773 52.2769 44.7943 53.0419 44.9794 53.2969C45.8432 54.3169 45.7198 54.0619 45.7815 54.6357H42.1412C42.2646 53.8707 43.7454 52.3406 43.9922 52.1494ZM64.3533 54.5082V53.2332C64.6001 53.4244 64.7852 53.4244 64.7852 53.8707C64.7852 54.3807 64.5384 54.3169 64.3533 54.5082ZM65.5873 53.8707C65.7724 53.6157 65.9575 53.3607 66.2043 53.1057V54.6357C65.7107 54.3169 65.8341 54.3807 65.5873 53.8707ZM64.6618 52.7869H65.8958L65.1554 53.6157C64.9086 53.2969 64.8469 53.1694 64.6618 52.7869ZM65.2788 51.7031C65.5873 51.9581 65.649 52.1494 65.8958 52.4681H64.6618C64.7852 51.9581 64.9086 51.9581 65.2788 51.7031ZM65.7107 51.5756L66.2043 51.5118V51.9581L65.7107 51.5756ZM44.9177 51.2568C44.9177 51.0018 45.4113 50.4281 45.5347 50.2368C45.9666 49.7268 46.0283 49.7268 46.707 49.5993V53.8069C46.4602 53.5519 44.9177 52.0219 44.9177 51.2568ZM41.154 53.7432V49.8543C42.388 49.8543 42.1412 49.7905 42.5731 50.4281C43.1901 51.1931 43.5603 51.3206 42.2646 52.7231C41.4008 53.5519 41.8327 53.5519 41.154 53.7432ZM64.3533 52.0219V51.3843H64.7852L64.3533 52.0219ZM43.9922 50.3006C43.5603 50.3006 43.5603 50.0455 43.3752 49.8543C43.9305 49.7268 43.8688 49.7268 44.6092 49.7268C44.4241 50.0455 44.4858 50.3006 43.9922 50.3006ZM65.8958 46.4117C65.8958 46.4754 65.9575 46.4754 65.9575 46.5392C66.0809 47.3042 66.2043 46.0929 66.2043 49.408C65.7724 49.0893 65.8958 48.9618 65.8958 48.1967C65.8958 47.5592 65.8958 46.9854 65.8958 46.4117ZM65.0937 46.2842H65.7107V49.0893C64.9703 48.898 65.0937 48.898 65.0937 48.0055C65.0937 47.4317 65.0937 46.8579 65.0937 46.2842ZM64.5384 46.2842H64.9703V48.7705C64.2916 48.643 64.3533 48.643 64.3533 47.878C64.3533 47.0492 64.4767 46.7942 64.5384 46.2842ZM62.9959 47.4954H63.3044V48.133H62.9959V47.4954ZM62.3789 47.8142C62.564 47.623 62.9342 48.0692 62.564 47.878C62.564 47.878 62.1321 48.0692 62.3789 47.8142ZM60.7747 47.0492L61.2683 47.4954L60.7747 47.5592V47.0492ZM62.6874 40.4827V47.3042H62.2555C62.2555 46.0929 62.2555 44.9454 62.2555 43.7341C62.2555 43.1603 62.1938 42.3953 62.2555 41.8852C62.3172 41.5665 62.3172 41.439 62.4406 41.1202L62.564 40.8015L62.6874 40.4827ZM60.1577 46.5392C60.7747 46.7304 60.5896 46.6029 60.5896 47.3042H59.9726C60.0343 46.9217 60.0343 46.9217 60.1577 46.5392ZM61.5151 46.7304C61.5151 45.0091 61.2683 44.0528 61.947 42.969V47.3042C61.7002 47.1767 61.5151 47.1129 61.5151 46.7304ZM58.6152 43.6066C58.7386 43.7978 58.862 43.8616 58.9854 44.1803C59.1705 44.7541 59.1088 46.3479 59.1088 47.0492H58.6152V43.6066ZM57.8748 41.8852C58.6152 42.7778 58.3067 45.0729 58.3067 47.0492H57.8748V41.8852ZM57.1344 39.8452L57.5663 41.1202V46.7304C56.8259 46.5392 57.1344 45.7104 57.1344 43.6066C57.1344 42.3315 57.1344 41.1202 57.1344 39.8452ZM55.5919 45.9654C55.9621 46.2204 56.0238 46.0929 56.0238 46.7304C55.4685 46.5392 55.6536 46.6667 55.5919 45.9654ZM54.8515 45.0091C55.4068 45.3916 55.2834 45.6466 55.2834 46.5392H54.8515V45.0091ZM60.7747 46.0929C60.7747 45.5829 60.9598 45.3279 61.2066 45.0091V46.7304C60.9598 46.5392 60.7747 46.5392 60.7747 46.0929ZM59.2322 46.8579V44.8179C59.5407 45.1366 59.8492 45.4554 59.8492 46.0929C59.8492 46.5392 59.479 46.6667 59.2322 46.8579ZM54.1111 44.0528C54.9132 44.6266 54.7281 45.2004 54.7281 46.5392C54.4813 46.4117 54.543 46.4117 54.1111 46.4117V44.0528ZM53.4941 42.969C53.6175 43.1603 53.7409 43.224 53.8643 43.5428C53.9877 43.9253 53.9877 43.9253 53.9877 44.3716C53.9877 45.0091 53.9877 45.7104 53.9877 46.4117H53.5558L53.4941 42.969ZM52.7537 41.7577C53.4941 42.6503 53.1856 44.6266 53.1856 46.4117C52.5069 46.2204 52.7537 46.3479 52.7537 44.3716C52.7537 43.4791 52.7537 42.6503 52.7537 41.7577ZM52.0133 40.3552C52.1367 40.4827 52.2601 40.6102 52.3218 40.8015C52.5686 41.439 52.4452 45.4554 52.4452 46.2842H52.0133V40.3552ZM51.2729 38.6339C51.6431 39.2077 51.7048 39.5264 51.7048 40.1639V46.2204H51.2729V38.6339ZM50.4708 36.9126C51.2112 37.9964 50.9027 39.5902 50.9027 41.2477C50.9027 42.8415 50.9027 44.4353 50.9027 46.0929H50.4708V36.9126ZM49.7304 35.1913C50.3474 35.8925 50.1623 36.4026 50.1623 37.5501V46.0929H49.7304V35.1913ZM49.2985 33.98C49.607 34.4262 49.607 34.745 49.607 35.1913L49.2985 46.0929V33.98ZM56.394 37.6776C56.7025 38.1239 56.8259 38.6976 56.8259 39.3989V46.2842C56.0855 45.7741 56.394 44.2441 56.394 42.204C56.394 40.674 56.394 39.2077 56.394 37.6776ZM45.9666 37.0401C46.6453 37.5501 45.9666 37.0401 46.6453 39.1439C46.8921 39.8452 46.7687 45.0729 46.7687 45.9016H46.0283C45.9666 45.9654 45.9666 37.0401 45.9666 37.0401ZM44.7943 36.4663H45.6581V45.9654H44.7326V36.4663H44.7943ZM43.5603 36.4663H44.4858V45.8379H43.5603V36.4663ZM42.2029 36.4663H43.1284V45.8379H42.2029V36.4663ZM41.8944 37.0401V45.7741H41.154C41.154 44.2441 41.154 42.6503 41.154 41.1202C41.154 40.0364 41.0306 39.7814 41.3391 38.9526C41.8944 37.4863 41.2157 37.6138 41.8944 37.0401ZM4.68921 43.4791C5.05942 43.3516 5.24452 43.1603 5.55302 42.969V45.7741H4.68921V43.4791ZM3.45521 44.2441C4.01051 44.1166 3.64031 44.1166 4.19561 43.9253V45.7741H3.45521V44.2441ZM2.09781 45.3279C2.09781 44.8179 2.65311 44.7541 3.02331 44.5628V45.8379H2.09781C2.09781 45.7741 2.09781 45.3279 2.09781 45.3279ZM1.78931 45.1366V45.7741H0.925503C1.234 45.3916 1.3574 45.3916 1.78931 45.1366ZM37.2052 21.9308C37.2052 21.6758 37.452 21.357 37.6371 21.102L38.1307 20.337V45.5829H37.2052V21.9308ZM36.0329 23.9709C36.0329 23.7158 36.2797 23.3971 36.4031 23.1421C36.5882 22.8233 36.4648 23.0146 36.6499 22.7596C36.7733 22.5683 36.835 22.5046 36.8967 22.4408V45.6466H35.9712L36.0329 23.9709ZM34.6755 26.3297C34.6755 25.6922 35.2925 24.9909 35.601 24.6084V45.6466H34.6755V26.3297ZM33.4415 28.1785C33.4415 27.541 34.0585 26.8397 34.367 26.4572V45.5829H33.4415V28.1785ZM32.2692 29.7723C32.2692 29.4536 32.9479 28.561 33.1947 28.3698V45.6466H32.2692V29.7723ZM31.0352 31.4299C31.0352 31.1111 31.282 30.8561 31.5288 30.5373C31.6522 30.3461 31.7139 30.3461 31.7756 30.2186V45.6466H31.0352V31.4299ZM29.6778 33.1512C29.6778 32.8324 30.4182 32.0674 30.6033 31.8761V45.5829H29.6778V33.1512ZM28.5055 34.745C28.5055 34.4262 29.1842 33.6612 29.431 33.4699V45.6466H28.5055V34.745ZM27.2715 36.1475C27.2715 35.7013 27.7651 35.3825 28.0119 35.1913V45.6466H27.2715V36.1475ZM17.2144 44.0528C17.5846 43.9253 17.7697 43.7978 18.1399 43.6066V45.6466H17.2144V44.0528ZM16.9059 44.3716V45.6466H15.9803C15.9803 44.8816 15.8569 44.6266 16.9059 44.3716ZM15.5484 45.0091V45.6466H14.6229C14.9314 45.2004 15.0548 45.2641 15.5484 45.0091ZM12.2166 37.9964C12.2166 37.4863 12.7719 37.2313 13.1421 37.0401V45.5829H12.2166V37.9964ZM10.8592 39.2714C10.8592 38.7614 11.3528 38.4426 11.7847 38.3151V45.6466H10.8592V39.2714ZM9.62523 40.1639C9.62523 39.7177 9.74863 39.8452 9.99543 39.5902C10.2422 39.3989 10.3039 39.3352 10.5507 39.2077V45.5829H9.62523V40.1639ZM8.45293 40.8015C9.00823 40.674 8.88483 40.4827 9.37843 40.1639V45.6466H8.45293V40.8015ZM7.21892 42.0765C7.21892 41.6302 7.65082 41.5027 7.95932 41.3115V45.6466H7.21892V42.0765ZM5.86152 42.6503C6.23172 42.5228 6.41682 42.3953 6.78702 42.204V45.6466H5.86152V42.6503ZM25.9141 37.5501C25.9141 37.1038 26.5311 36.6576 26.8396 36.4663V45.6466C26.6545 45.5191 26.6545 45.5191 26.4077 45.5191H25.9141V37.5501ZM24.7418 38.7614C24.7418 38.3151 25.3588 37.8689 25.6673 37.6776V45.4554H24.7418V38.7614ZM23.5078 39.8452C23.5078 39.3352 24.0014 39.0164 24.4333 38.8889V45.4554H23.5078V39.8452ZM22.1504 40.929C22.1504 40.4827 22.2738 40.6102 22.5206 40.3552C22.7674 40.1639 22.8291 40.1002 23.0759 39.9727V45.4554H22.1504V40.929ZM20.9781 41.8852C20.9781 41.439 21.1015 41.5665 21.3483 41.3115C21.5951 41.1202 21.6568 41.0565 21.9036 40.929V45.4554H20.9781V41.8852ZM19.7441 42.8415C19.7441 42.3315 20.2994 42.1403 20.6696 41.8852V45.4554H19.7441V42.8415ZM18.3867 45.6466V43.7978C18.3867 43.2878 18.942 43.0965 19.3122 42.8415V45.5191C18.942 45.5829 18.8803 45.6466 18.3867 45.6466ZM55.5919 35.3825L55.9621 36.2751C56.1472 37.0401 56.0238 44.5628 56.0238 45.5191C55.3451 45.0729 55.5919 44.4991 55.5919 43.3516V35.3825ZM13.3889 45.3279V37.6776C13.3889 36.6576 13.5123 36.2113 14.3144 35.9563V43.6066C14.3144 44.8179 14.5612 45.2004 13.3889 45.3279ZM65.0937 43.4791C65.0937 43.0328 65.0937 42.714 65.2171 42.459C65.4022 41.8852 65.1554 42.0765 65.7107 41.8852V44.6903H65.0937V43.4791ZM64.9086 43.9253L64.9703 44.7541H64.6618L64.9086 43.9253ZM65.8958 44.6903V41.8852C66.1426 42.1403 66.2043 42.1403 66.2043 42.6503V44.1803C66.1426 44.6903 65.8958 44.6903 65.8958 44.6903ZM14.6229 44.8816V36.5938C14.6229 35.3825 14.808 35.255 15.5484 34.745V44.5628C15.0548 44.6266 15.1165 44.7541 14.6229 44.8816ZM54.8515 32.8324L55.2217 33.8525C55.3451 34.2987 55.2834 34.8725 55.2834 35.3188V44.6903C54.6047 43.9253 54.8515 43.7341 54.8515 42.204V32.8324ZM15.9803 44.2441V35.3825C15.9803 34.0437 16.1037 33.9162 16.9059 33.3424V43.7978L15.9803 44.2441ZM54.1111 30.2186C54.1111 30.2186 54.1728 30.2823 54.1728 30.3461C54.1728 30.4736 54.7281 31.1749 54.7281 33.0237V43.7978C53.926 43.1603 54.1111 42.3953 54.1111 40.9927V30.2186ZM17.2144 43.4791V34.2987C17.2144 32.8324 17.2144 32.7049 18.1399 32.1311V43.0328C17.7697 43.224 17.6463 43.3516 17.2144 43.4791ZM64.6618 42.969H64.3533C64.3533 42.0765 64.1682 42.0765 64.7852 41.8852C64.7852 42.5228 64.6618 42.3315 64.6618 42.969ZM18.3867 42.8415V33.2149C18.3867 31.6211 18.325 31.5574 19.3122 30.8561V42.204C19.0037 42.3953 18.6952 42.6503 18.3867 42.8415ZM53.4941 27.8597L53.8026 28.4973C54.0494 29.3898 53.9877 30.1548 53.9877 31.1111V42.6503C53.8643 42.459 53.7409 42.3953 53.6175 42.0765C53.4941 41.694 53.4941 41.694 53.4941 41.2477V27.8597ZM19.7441 41.8852V31.9399C19.7441 30.2823 19.6207 30.1548 20.6696 29.4536V41.3115C20.3611 41.5027 20.0526 41.694 19.7441 41.8852ZM64.5384 38.4426H64.9703V40.6102H64.5384V38.4426ZM52.7537 24.7359L53.1856 26.3297C53.2473 26.9672 53.1856 27.8597 53.1856 28.4973V41.2477C52.4452 40.4189 52.7537 39.1439 52.7537 37.4863V24.7359ZM62.9959 46.8579C62.9959 45.4554 62.8725 39.6539 63.1193 38.4426C63.181 38.1876 63.181 38.1876 63.2427 37.9326V44.6903C63.3044 45.9016 63.4895 46.2842 62.9959 46.8579ZM65.8958 40.674C65.8958 39.7177 66.0192 39.2714 66.0192 38.5064C66.3894 38.7614 66.3277 38.4426 66.3277 40.0364C66.3277 40.4827 66.0192 40.4827 65.8958 40.674ZM20.9781 40.9927V30.7286C20.9781 29.0073 20.793 28.816 21.9036 28.051V38.3151C21.8419 40.1639 22.1504 40.2914 20.9781 40.9927ZM22.1504 40.0364V29.2623C22.1504 27.7322 22.1504 27.2222 23.0759 26.5847V39.3352C22.7674 39.5902 22.4589 39.8452 22.1504 40.0364ZM52.0133 21.6758C52.7537 22.8871 52.4452 28.816 52.4452 30.4098C52.4452 33.5337 52.4452 36.6576 52.4452 39.7814C52.1984 39.5264 52.5069 39.9089 52.2601 39.5264C51.7665 38.6976 52.0133 32.1311 52.0133 31.0474C52.0133 27.8597 52.0133 24.7359 52.0133 21.6758ZM65.2788 40.3552H65.1554V38.5064H65.5873C65.4639 39.0802 65.2788 39.6539 65.2788 40.3552ZM23.5078 38.7614C23.5078 37.8689 23.3844 26.4572 23.5695 25.8834C23.6312 25.6922 24.2482 24.9909 24.3716 24.8634V35.8925C24.4333 37.4226 24.6801 38.4426 23.5078 38.7614ZM51.2729 18.3607H51.3963C51.3963 19.3169 51.7048 19.572 51.7048 20.5282C51.8282 25.7559 51.7048 32.8324 51.7048 38.1239C51.5814 37.9964 51.5814 38.0601 51.458 37.7414C51.0261 36.9763 51.2729 29.3898 51.2729 28.4335C51.2729 25.1184 51.2729 21.7395 51.2729 18.3607ZM65.0937 35.1913H65.7107V37.3588H65.0937V35.1913ZM24.7418 37.6776V26.3297C24.7418 25.9472 24.6801 24.7996 24.8035 24.4809C24.8652 24.2259 25.4205 23.5246 25.6673 23.3333V37.0401C25.2971 37.2951 25.0503 37.4863 24.7418 37.6776ZM64.9703 35.1913V37.3588H64.5384C64.5384 36.7213 64.5384 36.5938 64.415 36.02C64.2916 35.3188 64.2916 35.255 64.9703 35.1913ZM65.8958 35.1913H66.0192V35.9563H65.8958V35.1913ZM25.9141 36.5938V24.7359C25.9141 22.5683 25.7907 22.8233 26.8396 21.612V33.4699C26.8396 35.4463 27.1481 35.765 25.9141 36.5938ZM50.4708 15.1093L50.6559 15.5556C51.1495 17.0856 50.9027 23.8434 50.9027 25.5647C50.9027 29.1985 50.9027 32.8324 50.9027 36.4663L50.7793 36.2751C50.7793 36.2751 50.7176 36.0838 50.6559 36.0838C50.1623 35.0638 50.4091 27.286 50.4091 26.0747C50.4708 22.3771 50.4708 18.7432 50.4708 15.1093ZM27.2715 35.0638V23.3333C27.2715 21.6758 27.0247 20.7832 28.0119 20.082C28.0119 22.8233 28.1353 31.3024 28.0119 33.7887C28.0119 34.6175 27.7651 34.6812 27.2715 35.0638ZM49.7304 11.5392H49.8538C49.8538 12.5592 50.1623 12.8142 50.1623 14.0255L49.9772 34.1712C49.4836 33.1512 49.7304 24.6084 49.7304 23.3333C49.7304 19.4444 49.7304 15.4918 49.7304 11.5392ZM28.5055 33.6612V21.357C28.5055 19.1257 28.3204 19.3807 29.431 18.1056V32.4499C29.3076 32.8324 28.814 33.4062 28.5055 33.6612ZM44.7943 24.1621H45.6581V32.3862H44.7326V24.1621H44.7943ZM43.5603 24.1621H44.4858V32.3862H43.5603V24.1621ZM42.2029 24.1621H43.1284V32.3862H42.2029V24.1621ZM45.9666 32.3862V24.2896L46.5219 25.7559C46.8921 26.9035 46.707 30.6011 46.707 31.9399C46.2134 32.0674 46.3985 32.0674 45.9666 32.3862ZM41.154 25.2459C41.8327 24.9271 41.2157 25.3734 41.5242 24.6721C41.6476 24.4171 41.4625 24.6084 41.6476 24.3534C41.771 24.1621 41.771 24.2259 41.8944 24.1621V32.3862C41.4625 32.0674 41.7093 32.0674 41.154 31.9399V25.2459ZM29.6778 32.0674L29.7395 17.5956C29.8012 17.2769 30.2948 16.5118 30.6033 16.3206V30.7924C30.4799 31.2386 29.9863 31.8761 29.6778 32.0674ZM31.0352 30.2186V18.0419C31.0352 16.3206 30.7267 15.3643 31.7756 14.5993V26.776C31.7756 28.4973 32.0841 29.5173 31.0352 30.2186ZM32.2692 28.4973L32.3309 13.898C32.3926 13.4517 32.8245 12.878 33.1947 12.623L33.133 27.2222C33.0096 27.6685 32.6394 28.2423 32.2692 28.4973ZM33.4415 26.776L33.5032 12.0492C33.5649 11.7304 34.0585 10.9654 34.367 10.7741L34.3053 25.5009C34.2436 25.8197 34.1202 25.8834 33.8734 26.2022L33.4415 26.776ZM34.6755 24.9271C34.6755 23.9071 34.5521 10.9016 34.7372 10.2004C34.8606 9.7541 35.2925 9.11658 35.601 8.86157C35.601 9.8816 35.7244 22.9508 35.5393 23.5883L34.984 24.5446C34.7989 24.7359 34.7989 24.7996 34.6755 24.9271ZM36.0329 22.7596V10.1366C36.0329 8.92532 35.8478 7.65027 36.9584 6.88525C36.9584 7.90528 37.0818 20.847 36.8967 21.4845L36.3414 22.4408C36.1563 22.5683 36.1563 22.6321 36.0329 22.7596ZM44.7943 20.4007C44.7943 20.0182 45.0411 20.4007 44.856 20.4007C44.856 20.4007 44.7943 20.847 44.7943 20.4007ZM43.5603 15.8743L43.8688 16.6393C44.4241 18.5519 44.4858 18.4882 44.4858 20.5282H43.5603V15.8743ZM42.2029 13.8342H43.1284V20.5282H42.2029V13.8342ZM45.9666 20.5282V13.8342C46.5219 13.9618 46.8921 14.2168 46.8921 14.918V19.572C46.8921 20.1457 46.3985 20.4645 45.9666 20.5282ZM48.99 7.77778H49.1133C49.1133 8.73406 49.4836 9.56284 49.5453 10.4554V32.8324C48.99 32.1311 49.2368 27.6047 49.2368 26.776C49.2368 25.0546 49.4219 21.9945 49.2368 20.4007C49.1134 19.5082 48.99 20.2095 48.9283 19.1894L48.99 7.77778ZM40.9689 19.3169V15.4281C40.9689 15.3005 41.4625 14.153 41.8944 13.898V20.592C41.3391 20.4007 40.9689 20.0182 40.9689 19.3169ZM38.5626 45.6466L38.4392 19.9545C38.5009 19.5082 38.7477 19.1894 39.0562 18.8707C39.0562 20.6557 38.5626 18.4882 38.6243 21.6758L38.5626 45.6466ZM37.2052 20.7195C37.2052 19.6995 37.0818 6.75774 37.2669 6.12022L37.8222 5.16394C37.9456 4.97268 38.0073 4.97268 38.069 4.84517C38.069 5.86521 38.1924 18.7432 38.0073 19.4444C37.9456 19.7632 37.452 20.5282 37.2052 20.7195ZM44.7943 17.7869V13.898H45.6581V20.592C45.2879 20.2732 45.2262 19.827 45.1028 19.3169C44.9794 18.7432 44.7943 18.3607 44.7943 17.7869ZM38.4392 18.6794C38.4392 15.4918 38.3158 7.84153 38.4392 4.78142C38.5009 3.95264 38.686 3.82514 39.0562 3.37887C39.0562 5.92896 39.1796 14.918 39.0562 17.2769C38.9945 17.8506 38.9328 18.1056 38.4392 18.6794ZM43.6837 13.8342H44.4241L44.1773 16.1293L43.6837 13.8342ZM42.2029 10.9016C42.2029 10.5191 42.4497 10.9016 42.2646 10.9016C42.2646 10.9016 42.2029 11.3479 42.2029 10.9016ZM44.7943 8.54281C44.7943 8.09654 45.2262 7.20401 45.5347 6.75774C45.7198 6.43898 45.5964 6.63024 45.7198 6.50273V10.8379H44.7943V8.54281ZM43.9922 11.0291H43.5603C43.5603 10.2641 44.0539 9.30783 44.4858 8.98907C44.4858 9.81785 44.7326 11.0291 43.9922 11.0291ZM45.9666 10.9016V6.05647C46.0283 5.4827 46.2751 5.41894 46.3985 4.78142H46.8921V10.5191C46.3985 10.5829 46.2134 10.6466 45.9666 10.9016ZM40.9689 5.73771C41.3391 6.31148 41.8944 9.05282 41.8944 10.9016C41.5242 10.6466 41.5859 10.5829 40.9689 10.5829V5.73771ZM42.2029 7.77778V4.65392H43.1284C43.1284 6.31148 43.3135 9.30783 43.005 10.7104C42.5731 10.2641 42.2029 8.47905 42.2029 7.77778ZM43.5603 9.37158V4.65392H44.4858C44.4858 6.50273 44.6709 7.20401 44.1156 8.35155L43.7454 9.05282C43.5603 9.37158 43.6837 9.18033 43.5603 9.37158ZM41.8944 4.65392V6.82149C41.8944 6.75774 41.8327 6.69399 41.8327 6.69399L41.5242 5.6102C41.3391 4.78142 41.3391 4.97268 41.8944 4.65392ZM44.7943 7.01275V4.65392H45.6581C45.6581 5.4827 45.2262 6.43898 44.7943 7.01275ZM39.6115 0.446266C39.6115 0.892532 39.3647 0.82878 39.1796 1.21129C38.9328 1.78506 39.1179 1.78506 38.9328 2.35883C38.7477 3.06011 30.9118 14.7268 29.5544 16.7668L25.0503 23.0146C22.8291 26.0747 18.4484 31.3661 15.8569 33.6612L11.723 37.4863C9.00823 39.9727 4.01051 43.7978 0.740402 45.1366C0.308501 45.2641 0 45.3279 0 45.7741V52.5956C0.740402 52.5956 0.740402 52.4681 1.4808 52.4044C2.09781 52.4044 2.71481 52.4044 3.27011 52.4044C4.01051 52.4044 4.13391 52.2769 4.93602 52.2131C5.55302 52.2131 6.17002 52.2131 6.72532 52.2131C7.46572 52.2131 7.46572 52.0856 8.20613 52.0219C8.82313 52.0219 9.44013 52.0856 9.99543 52.0219C10.6741 51.9581 10.7975 51.8306 11.6613 51.8306L16.7825 51.7031C22.5206 51.1931 28.3204 51.2568 34.1202 51.2568V50.3006C35.7244 50.3006 36.835 49.9818 38.5009 49.9818V60.7559C38.5009 62.4772 38.3775 63.561 38.3775 65.2823C37.2669 65.3461 37.452 66.4299 37.452 67.6412L33.75 67.8962C32.5777 68.0874 31.0352 68.0237 30.1714 68.4062V69.1712C30.9118 69.235 31.4671 69.4262 32.2692 69.49C38.2541 69.8725 46.8304 69.6175 53.0622 69.6175C54.7898 69.6175 55.9621 69.2987 57.4429 69.1712V68.4062C56.7642 68.0874 51.3346 67.6412 50.224 67.6412C50.1006 67.0036 50.1006 67.0036 50.1006 66.2386C50.0389 65.6011 50.0389 65.4736 49.4836 65.2823C49.4836 62.4772 49.175 63.2423 49.175 62.4772V49.5355C49.9155 49.5355 49.9772 49.408 50.841 49.408C53.8643 49.408 58.3067 49.408 61.0215 50.1093C61.3917 50.173 61.7002 50.3005 62.0704 50.4281C62.5023 50.6193 62.6874 50.6831 63.181 50.8106V55.337C63.1193 56.7395 62.8725 55.592 62.8725 57.0583L60.9598 57.122C60.2194 57.3133 60.5896 57.0583 60.2811 57.5046C61.6385 58.2058 67.9319 57.6321 69.7829 57.6321V57.1858L67.3766 57.0583C67.3766 56.6758 67.3766 56.867 67.3149 56.5483C67.1915 56.1658 67.2532 56.4845 67.1298 55.9745C66.883 55.0182 66.9447 52.7231 66.9447 51.6393H67.6851C67.6851 49.7268 67.0681 50.9381 66.9447 49.5993L66.6362 33.725C65.4639 34.1712 67.3766 34.1712 64.3533 34.1712C63.9831 34.1712 63.9214 33.9162 63.6129 33.725C63.3044 34.2987 62.5023 38.5701 62.1321 39.9727C61.7619 41.3115 60.8364 44.9454 60.0343 45.5829C59.9109 45.0729 59.1705 43.7978 58.862 43.224C58.4918 42.3315 58.1833 41.6302 57.8131 40.674C54.9749 33.4062 51.9516 19.8907 50.2857 11.9854C49.9155 9.56284 48.8048 4.97268 48.8665 2.61384C48.8665 0.637523 48.8666 1.72131 48.4963 0.701275C48.1878 -0.191257 48.4963 0.0637523 47.8176 0C47.8176 0.382514 47.8793 0.701275 47.5091 1.08379C47.0772 1.59381 47.0155 1.27505 46.3985 1.4663C45.9049 1.65756 46.2134 1.84882 45.7198 1.84882C44.5475 1.84882 42.8816 2.10383 41.8327 1.65756C40.7838 1.14754 40.9689 1.59381 40.5987 1.08379C40.1668 0.637523 40.2285 0.637523 40.2285 0H39.6115V0.446266Z" fill="#468579"/>
<path d="M84.7146 25.4371C86.1954 25.4371 87.5528 25.2459 88.8485 24.6084C90.0825 24.0346 91.1931 23.2696 91.8718 22.2495C92.6739 21.1657 93.0441 19.8907 93.0441 18.5519C93.0441 16.2568 91.8718 14.408 89.6506 13.2605C88.0464 12.3679 85.3316 11.9217 84.0976 11.6666C80.9509 11.0291 78.9765 10.1366 78.9765 7.90526C78.9765 6.69397 79.7786 5.54643 81.1977 4.90891C83.2338 4.01638 86.6273 4.08013 90.1442 6.88523L92.0569 4.59015C90.0825 2.99634 87.8613 1.9763 85.6401 1.59379C83.604 1.27503 81.5679 1.46629 79.902 2.29506C78.7297 2.80508 77.7425 3.57011 77.0638 4.52639C76.3234 5.54643 75.9532 6.69397 75.9532 7.90526C75.9532 10.0728 77.0638 11.8579 79.0999 13.0692C80.6424 13.898 84.4678 14.663 84.6529 14.7268C87.306 15.2368 90.0208 16.1293 90.0208 18.6156C90.0208 20.6557 88.4783 21.612 87.6145 21.9945C86.2571 22.5683 84.5912 22.6958 82.9253 22.377C80.8892 21.9945 78.9148 20.9745 77.1255 19.4444L75.0894 21.6758C77.3106 23.5246 79.7786 24.7359 82.3083 25.2459C83.1104 25.3734 83.9125 25.4371 84.7146 25.4371ZM109.518 12.0492C107.976 10.5829 105.939 9.75408 103.78 9.75408C101.62 9.75408 99.5843 10.5191 97.9801 12.0492C96.4376 13.5792 95.5738 15.5555 95.5738 17.6594C95.5738 19.7632 96.4376 21.7395 97.9801 23.2696C99.5226 24.7359 101.559 25.5646 103.78 25.5646C105.939 25.5646 107.976 24.7359 109.518 23.2696C111.061 21.7395 111.924 19.7632 111.924 17.6594C111.924 15.5555 111.061 13.5792 109.518 12.0492ZM103.78 22.7595C100.88 22.7595 98.5354 20.4645 98.5354 17.6594C98.5354 14.8543 100.88 12.6229 103.78 12.6229C106.68 12.6229 109.024 14.8543 109.024 17.6594C109.024 20.4645 106.68 22.7595 103.78 22.7595ZM117.909 25.2459V1.02002H115.009V25.2459H117.909ZM124.264 23.5883C125.622 24.8634 127.411 25.5646 129.386 25.5646C131.298 25.5646 133.088 24.9271 134.445 23.5883C135.802 22.3133 136.604 20.592 136.604 18.7432V10.1366H133.705V18.8069C133.705 21.0382 131.792 22.8233 129.386 22.8233C126.979 22.8233 125.066 21.0382 125.066 18.8069V10.1366H122.167V18.8069C122.167 20.592 122.907 22.3133 124.264 23.5883ZM147.649 25.2459H151.104L150.364 22.5683H147.772C146.538 22.5683 145.428 21.4207 145.428 20.2095V12.8142H150.24V10.1366H145.428V4.27139H142.528V10.1366H140.183V12.8142H142.528V20.2095C142.528 23.0146 144.811 25.2459 147.649 25.2459ZM155.855 7.65026C156.904 7.65026 157.768 6.82148 157.768 5.73769C157.768 4.71765 156.904 3.88887 155.855 3.88887C154.744 3.88887 153.942 4.71765 153.942 5.73769C153.88 6.82148 154.744 7.65026 155.855 7.65026ZM154.374 25.2459H157.274V10.1366H154.374V25.2459ZM175.044 12.0492C173.501 10.5829 171.465 9.75408 169.306 9.75408C167.146 9.75408 165.11 10.5191 163.506 12.0492C161.963 13.5792 161.099 15.5555 161.099 17.6594C161.099 19.7632 161.963 21.7395 163.506 23.2696C165.048 24.7359 167.084 25.5646 169.306 25.5646C171.465 25.5646 173.501 24.7359 175.044 23.2696C176.586 21.7395 177.45 19.7632 177.45 17.6594C177.45 15.5555 176.586 13.5792 175.044 12.0492ZM169.244 22.7595C166.344 22.7595 163.999 20.4645 163.999 17.6594C163.999 14.8543 166.344 12.6229 169.244 12.6229C172.144 12.6229 174.488 14.8543 174.488 17.6594C174.488 20.4645 172.144 22.7595 169.244 22.7595ZM193.245 11.9217C191.826 10.5191 189.913 9.81783 187.877 9.81783C186.211 9.81783 184.607 10.5829 183.311 11.5391V10.0728H180.412V25.1821H183.311V17.0856C183.311 14.5993 185.409 12.5592 187.877 12.5592C190.407 12.5592 192.443 14.5993 192.443 17.0856V25.1821H195.343V17.0856C195.466 15.1093 194.664 13.3242 193.245 11.9217ZM209.226 18.4244C208.855 17.9781 208.485 17.5956 207.621 17.1493C206.819 16.7031 204.043 16.1293 204.043 16.1293C201.945 15.683 201.143 15.173 201.143 14.153C201.143 13.5792 201.575 12.9417 202.253 12.6229C202.747 12.3679 203.302 12.3042 203.919 12.3042C204.536 12.3042 205.894 12.4954 207.436 13.643L209.164 11.7304C207.93 10.7741 206.449 10.1366 204.968 9.94534C204.598 9.88159 204.166 9.88159 203.796 9.88159C202.809 9.88159 201.945 10.0728 201.081 10.4554C200.217 10.8379 199.6 11.2841 199.168 11.9217C198.675 12.6229 198.428 13.388 198.428 14.2167C198.428 15.7468 199.168 16.9581 200.588 17.7231C201.513 18.2331 204.104 18.7432 204.228 18.7432C206.326 19.1257 207.251 19.7632 207.251 20.7832C207.251 21.8033 206.449 22.3133 206.017 22.5045C205.462 22.7595 204.845 22.8871 204.228 22.8871C203.302 22.8871 201.76 22.5683 199.909 21.102L198.058 23.0783C199.415 24.2258 201.019 24.9271 202.747 25.2459C203.302 25.3734 203.796 25.4371 204.351 25.4371C205.338 25.4371 206.326 25.2459 207.128 24.8634C208.053 24.4171 208.732 23.9071 209.226 23.2058C209.719 22.5045 209.966 21.6758 209.966 20.847C209.904 19.8907 209.657 19.1257 209.226 18.4244Z" fill="#468579"/>
<path d="M78.7294 69.8725H79.4698V64.326H78.7294V66.3023H75.7677V64.326H75.0273V69.8725H75.7677V66.9399H78.7294V69.8725ZM85.8866 69.8725H86.6887L84.4675 64.326H83.7271L81.5059 69.8725H82.308L82.925 68.2787H85.2696L85.8866 69.8725ZM84.9611 67.5774H83.1718L84.0973 65.3461L84.9611 67.5774ZM93.3523 69.8725H94.1544V64.326H93.414V68.7249L90.329 64.326H89.5269V69.8725H90.2673V65.4736L93.3523 69.8725ZM96.7458 69.8725H98.5968C100.201 69.8725 101.558 68.5974 101.558 67.0674C101.558 65.5373 100.263 64.2623 98.5968 64.2623H96.7458V69.8725ZM98.5968 69.2349H97.4862V65.0273H98.5968C99.8308 65.0273 100.818 65.9836 100.818 67.1311C100.818 68.2787 99.8308 69.2349 98.5968 69.2349ZM106.433 69.9362C106.803 69.9362 107.111 69.8725 107.42 69.745C107.728 69.6175 107.975 69.4262 108.16 69.1712C108.345 68.9162 108.407 68.5974 108.407 68.2787C108.407 67.7686 108.16 67.3224 107.605 67.0036C107.235 66.8124 106.618 66.6849 106.309 66.6211C105.569 66.4298 105.075 66.2386 105.075 65.7286C105.075 65.4736 105.26 65.1548 105.631 65.0273C106.124 64.836 106.926 64.836 107.728 65.4736L108.16 64.9635C107.667 64.581 107.173 64.326 106.618 64.2623C106.124 64.1985 105.631 64.2623 105.26 64.4535C105.014 64.581 104.767 64.7723 104.582 64.9635C104.397 65.2186 104.335 65.4736 104.335 65.7923C104.335 66.3023 104.582 66.7486 105.075 67.0036C105.446 67.1949 106.371 67.3861 106.371 67.3861C106.988 67.5136 107.667 67.7049 107.667 68.2787C107.667 68.7249 107.297 68.9799 107.111 69.1074C106.803 69.2349 106.371 69.2987 106.001 69.1712C105.507 69.0437 105.075 68.8524 104.643 68.4699L104.15 68.9799C104.705 69.4262 105.26 69.6812 105.877 69.8087C106.001 69.9362 106.186 69.9362 106.433 69.9362ZM117.169 64.1348C115.503 64.1348 114.145 65.4736 114.145 67.0674C114.145 68.6612 115.503 70 117.169 70C118.834 70 120.192 68.7249 120.192 67.0674C120.192 65.4736 118.834 64.1348 117.169 64.1348ZM117.169 69.2987C115.935 69.2987 114.886 68.2787 114.886 67.0674C114.886 65.8561 115.873 64.836 117.169 64.836C118.403 64.836 119.451 65.8561 119.451 67.0674C119.451 68.2787 118.464 69.2987 117.169 69.2987ZM126.979 69.8725H127.781V64.326H127.041V68.7249L123.956 64.326H123.153V69.8725H123.894V65.4736L126.979 69.8725ZM136.172 66.9399C136.789 66.8124 137.221 66.3023 137.221 65.6648C137.221 65.2823 137.098 64.9635 136.789 64.7085C136.542 64.4535 136.172 64.326 135.802 64.326H133.828V69.8725H134.506V66.9399H135.308L137.53 69.8725H138.332L136.172 66.9399ZM134.568 64.9635H135.864C136.234 64.9635 136.542 65.2823 136.542 65.6011C136.542 65.9836 136.234 66.2386 135.864 66.2386H134.568V64.9635ZM140.491 69.8725H144.07V69.1712H141.232V66.9399H143.761V66.3023H141.232V64.9635H144.132V64.2623H140.491V69.8725ZM150.61 69.8725H151.412L149.191 64.326H148.451L146.229 69.8725H147.031L147.648 68.2787H149.993L150.61 69.8725ZM149.685 67.5774H147.895L148.821 65.3461L149.685 67.5774ZM154.189 69.8725H158.076V69.1712H154.929V64.2623H154.189V69.8725ZM169.058 69.8725H169.861L171.465 64.326H170.724L169.367 68.9799L167.824 66.3023H167.022L165.418 68.9799L164.061 64.326H163.32L164.924 69.8725H165.727L167.392 67.0036L169.058 69.8725ZM176.031 64.1348C174.365 64.1348 173.007 65.4736 173.007 67.0674C173.007 68.6612 174.365 70 176.031 70C177.696 70 179.054 68.7249 179.054 67.0674C179.054 65.4736 177.696 64.1348 176.031 64.1348ZM176.031 69.2987C174.797 69.2987 173.748 68.2787 173.748 67.0674C173.748 65.8561 174.797 64.836 176.031 64.836C177.265 64.836 178.313 65.8561 178.313 67.0674C178.313 68.2787 177.326 69.2987 176.031 69.2987ZM183.866 66.9399C184.483 66.8124 184.915 66.3023 184.915 65.6648C184.915 65.2823 184.792 64.9635 184.483 64.7085C184.237 64.4535 183.866 64.326 183.496 64.326H181.522V69.8725H182.201V66.9399H183.003L185.224 69.8725H186.026L183.866 66.9399ZM182.262 64.9635H183.558C183.928 64.9635 184.237 65.2823 184.237 65.6011C184.237 65.9836 183.928 66.2386 183.558 66.2386H182.262V64.9635ZM189.111 69.8725H192.998V69.1712H189.851V64.2623H189.111V69.8725ZM195.404 69.8725H197.255C198.86 69.8725 200.217 68.5974 200.217 67.0674C200.217 65.5373 198.921 64.2623 197.255 64.2623H195.404V69.8725ZM197.255 69.2349H196.145V65.0273H197.255C198.489 65.0273 199.477 65.9836 199.477 67.1311C199.538 68.2787 198.489 69.2349 197.255 69.2349ZM206.079 69.8725H209.657V69.1712H206.819V66.9399H209.349V66.3023H206.819V64.9635H209.719V64.2623H206.079V69.8725ZM216.506 69.8725H217.37L215.21 66.9399L217.185 64.2623H216.321L214.84 66.3023L213.359 64.2623H212.495L214.47 66.9399L212.31 69.8725H213.174L214.902 67.5136L216.506 69.8725ZM220.146 69.8725H220.887V66.9399H222.182C222.923 66.9399 223.54 66.3661 223.54 65.6011C223.54 65.2186 223.416 64.8998 223.108 64.6448C222.861 64.3898 222.491 64.2623 222.121 64.2623H220.146V69.8725ZM222.182 66.3023H220.887V65.0273H222.182C222.552 65.0273 222.799 65.3461 222.799 65.6648C222.799 65.9836 222.552 66.3023 222.182 66.3023ZM225.576 69.8725H229.154V69.1712H226.316V66.9399H228.846V66.3023H226.316V64.9635H229.216V64.2623H225.576V69.8725ZM234.522 66.9399C235.139 66.8124 235.571 66.3023 235.571 65.6648C235.571 65.2823 235.448 64.9635 235.139 64.7085C234.893 64.4535 234.522 64.326 234.152 64.326H232.178V69.8725H232.856V66.9399H233.659L235.88 69.8725H236.682L234.522 66.9399ZM232.856 64.9635H234.152C234.522 64.9635 234.831 65.2823 234.831 65.6011C234.831 65.9836 234.522 66.2386 234.152 66.2386H232.856V64.9635ZM239.52 69.8725H240.26V64.326H239.52V69.8725ZM243.901 69.8725H247.479V69.1712H244.641V66.9399H247.171V66.3023H244.641V64.9635H247.541V64.2623H243.901V69.8725ZM254.081 69.8725H254.883V64.326H254.143V68.7249L251.058 64.326H250.256V69.8725H250.996V65.4736L254.081 69.8725ZM260.868 69.2987C259.573 69.2987 258.585 68.2787 258.585 67.0674C258.585 65.8561 259.634 64.836 260.868 64.836C261.609 64.836 262.287 65.1548 262.719 65.7286L263.275 65.3461C262.719 64.581 261.794 64.1985 260.868 64.1985C259.202 64.1985 257.845 65.5373 257.845 67.1311C257.845 68.7249 259.202 70.0637 260.868 70.0637C261.794 70.0637 262.719 69.6175 263.275 68.9162L262.719 68.5337C262.287 68.9799 261.609 69.2987 260.868 69.2987ZM266.36 69.8725H269.938V69.1712H267.1V66.9399H269.63V66.3023H267.1V64.9635H270V64.2623H266.36V69.8725Z" fill="#468579"/>
<path d="M93.0438 53.6158H96.3756L86.9355 30.0912H83.7271L74.3486 53.6158H77.6187L80.3335 46.7943H90.329L93.0438 53.6158ZM89.095 43.9254H81.5059L85.3313 34.4263L89.095 43.9254ZM102.237 38.5065H99.2755V53.6158H102.237V45.583C102.237 43.0329 104.52 41.0566 107.235 41.0566L107.975 38.1877C106.186 38.1877 103.224 39.0165 102.237 40.1003V38.5065ZM121.549 49.0256C120.562 50.3006 119.02 51.1932 117.292 51.1932C114.392 51.1932 111.986 48.8981 111.986 46.093C111.986 43.2879 114.33 40.9928 117.292 40.9928C119.02 40.9928 120.562 41.8216 121.549 43.0966L123.894 41.4391C123.647 41.1203 123.4 40.8015 123.092 40.5465C121.549 39.0802 119.513 38.2515 117.292 38.2515C115.071 38.2515 113.035 39.0165 111.43 40.5465C109.888 42.0766 109.024 44.0529 109.024 46.1567C109.024 48.2606 109.888 50.2369 111.43 51.7669C112.973 53.2332 115.071 54.062 117.292 54.062C119.513 54.062 121.549 53.297 123.092 51.7669C123.4 51.4482 123.647 51.1294 123.956 50.8107L121.549 49.0256ZM139.566 40.3553C138.147 38.9527 136.234 38.2515 134.198 38.2515C132.532 38.2515 130.928 39.0165 129.57 39.9728V29.3899H126.609V53.6158H129.57V45.5192C129.57 43.0329 131.668 40.9928 134.198 40.9928C136.789 40.9928 138.825 43.0329 138.825 45.5192V53.6158H141.787V45.5192C141.787 43.5429 140.985 41.6941 139.566 40.3553ZM147.525 36.0839C148.574 36.0839 149.438 35.2551 149.438 34.1713C149.438 33.1513 148.574 32.3225 147.525 32.3225C146.414 32.3225 145.551 33.1513 145.551 34.1713C145.612 35.1913 146.414 36.0839 147.525 36.0839ZM146.044 53.6158H149.006V38.5065H146.044V53.6158ZM160.42 53.6158H163.876L163.135 50.9382H160.482C159.248 50.9382 158.137 49.7906 158.137 48.5793V41.2478H162.95V38.5702H158.137V32.705H155.176V38.5702H152.831V41.2478H155.176V48.6431C155.238 51.4482 157.582 53.6158 160.42 53.6158ZM179.794 44.3717C179.547 42.9691 178.807 41.7578 177.82 40.7378C176.401 39.2715 174.55 38.4427 172.452 38.4427C170.416 38.4427 168.503 39.2715 167.146 40.7378C166.158 41.7578 165.48 43.0329 165.171 44.3717C165.048 44.9454 164.986 45.583 164.986 46.1567C164.986 46.4118 164.986 46.603 165.048 46.858C165.171 48.6431 165.912 50.3006 167.146 51.6394C168.503 53.1057 170.416 53.9345 172.452 53.9345C173.933 53.8708 175.414 53.4883 176.586 52.787C177.388 52.3407 178.067 51.7669 178.684 51.1294L176.216 49.7269C175.228 50.6832 173.809 51.2569 172.39 51.3207C170.107 51.2569 168.195 49.4081 167.824 46.9218V46.858H179.918C180.041 46.4755 180.041 45.7105 179.794 44.3717ZM168.133 44.3717L168.195 44.3079C168.935 42.3316 170.663 41.0566 172.575 41.0566C174.488 41.0566 176.216 42.3954 176.956 44.3079L177.018 44.3717H168.133ZM194.664 49.0256C193.677 50.3006 192.134 51.1932 190.407 51.1932C187.507 51.1932 185.1 48.8981 185.1 46.093C185.1 43.2879 187.445 40.9928 190.407 40.9928C192.134 40.9928 193.677 41.8216 194.664 43.0966L197.009 41.4391C196.762 41.1203 196.515 40.8015 196.206 40.5465C194.664 39.0802 192.628 38.2515 190.407 38.2515C188.185 38.2515 186.149 39.0165 184.545 40.5465C183.003 42.0766 182.139 44.0529 182.139 46.1567C182.139 48.2606 183.003 50.2369 184.545 51.7669C186.088 53.2332 188.185 54.062 190.407 54.062C192.628 54.062 194.664 53.297 196.206 51.7669C196.515 51.4482 196.762 51.1294 197.07 50.8107L194.664 49.0256ZM206.264 53.6158H209.719L208.978 50.9382H206.325C205.091 50.9382 203.981 49.7906 203.981 48.5793V41.2478H208.793V38.5702H203.981V32.705H201.019V38.5702H198.674V41.2478H201.019V48.6431C201.081 51.4482 203.364 53.6158 206.264 53.6158ZM214.47 52.0219C215.827 53.297 217.678 53.9983 219.591 53.9983C221.504 53.9983 223.355 53.3607 224.712 52.0219C226.069 50.7469 226.871 49.0256 226.871 47.1768V38.5065H223.972V47.1768C223.972 49.4081 221.997 51.1932 219.653 51.1932C217.246 51.1932 215.334 49.4081 215.334 47.1768V38.5065H212.372V47.1768C212.372 49.0256 213.112 50.7469 214.47 52.0219ZM234.09 38.5065H231.129V53.6158H234.09V45.583C234.09 43.0329 236.373 41.0566 239.088 41.0566L239.829 38.1877C238.039 38.1877 235.078 39.0165 234.09 40.1003V38.5065ZM255.439 44.3717C255.192 42.9691 254.451 41.7578 253.464 40.7378C252.045 39.2715 250.194 38.4427 248.096 38.4427C246.06 38.4427 244.148 39.2715 242.79 40.7378C241.803 41.7578 241.124 43.0329 240.816 44.3717C240.692 44.9454 240.631 45.583 240.631 46.1567C240.631 46.4118 240.631 46.603 240.692 46.858C240.816 48.6431 241.556 50.3006 242.79 51.6394C244.148 53.1057 246.06 53.9345 248.096 53.9345C249.577 53.8708 251.058 53.4883 252.23 52.787C253.032 52.3407 253.711 51.7669 254.328 51.1294L251.86 49.7269C250.873 50.6832 249.454 51.2569 248.035 51.3207C245.752 51.2569 243.839 49.4081 243.469 46.9218V46.858H255.562C255.685 46.4755 255.685 45.7105 255.439 44.3717ZM243.777 44.3717L243.839 44.3079C244.579 42.3316 246.307 41.0566 248.22 41.0566C250.132 41.0566 251.86 42.3954 252.6 44.3079L252.662 44.3717H243.777Z" fill="#468579"/>
<path d="M256.241 37.1039V25.5647H255.13L253.032 27.3498L253.834 28.4973L254.945 27.541V37.1039H256.241Z" fill="#468579"/>
<path d="M261.424 25.2458C259.573 25.2458 258.03 26.9034 258.03 29.0072V33.4699C258.03 35.5737 259.573 37.2313 261.424 37.2313C263.275 37.2313 264.817 35.5737 264.817 33.4699V29.0072C264.817 26.9034 263.336 25.2458 261.424 25.2458ZM263.583 33.4699C263.583 34.7449 262.658 35.8287 261.485 35.8287C260.313 35.8287 259.388 34.7449 259.388 33.4699V29.0072C259.388 27.7322 260.313 26.6484 261.485 26.6484C262.658 26.6484 263.583 27.7322 263.583 29.0072V33.4699Z" fill="#468579"/>
<path d="M269.506 37.1039V25.5647H268.396L266.298 27.3498L267.038 28.4973L268.149 27.541V37.1039H269.506Z" fill="#468579"/>
<path d="M75.1509 58.9072H269.136" stroke="#C5C6C6" stroke-width="0.5669" stroke-miterlimit="10"/>
<path d="M255.932 36.9763V25.5646H254.883L252.847 27.2859L253.588 28.4335L254.636 27.4772V36.9763H255.932ZM260.93 25.2458C259.141 25.2458 257.721 26.9034 257.721 28.9435V33.4061C257.721 35.4462 259.141 37.1675 260.93 37.1675C262.719 37.1675 264.138 35.51 264.138 33.4061V28.9435C264.138 26.9034 262.658 25.2458 260.93 25.2458ZM262.904 33.4061C262.904 34.6812 261.979 35.765 260.868 35.765C259.758 35.765 258.832 34.6812 258.832 33.4061V28.9435C258.832 27.6684 259.758 26.5846 260.868 26.5846C261.979 26.5846 262.904 27.6684 262.904 28.9435V33.4061ZM268.581 36.9763V25.5646H267.532L265.496 27.2859L266.236 28.4335L267.285 27.4772V36.9763H268.581Z" fill="#468579"/>
</g>
<defs>
<clipPath id="clip0_1_340">
<rect width="270" height="70" fill="white"/>
</clipPath>
</defs>
</svg>
