<svg width="20" height="20" viewBox="0 0 20 20" fill="none" xmlns="http://www.w3.org/2000/svg">
<g clip-path="url(#clip0_504_9)">
<path d="M19.2666 5.88477L13.4744 0.0917969C13.4158 0.0332031 13.3365 0 13.2537 0H6.69277C5.16582 0 3.92363 1.24258 3.92363 2.76953V8.25039H1.49316C1.02363 8.25039 0.641602 8.63242 0.641602 9.10195V13.9973C0.641602 14.4668 1.02363 14.8488 1.49316 14.8488H3.92363V17.2305C3.92363 18.7574 5.16582 20 6.69277 20H16.5889C18.1158 20 19.358 18.7574 19.358 17.2305V6.10586C19.358 6.02305 19.3252 5.94336 19.2666 5.88477ZM3.59785 12.2191V10.8812C3.59785 10.1535 4.18965 9.56133 4.91699 9.56133C5.64395 9.56133 6.23574 10.1535 6.23574 10.8812C6.23574 11.0539 6.0959 11.1937 5.92324 11.1937C5.75098 11.1937 5.61113 11.0539 5.61113 10.8812C5.61113 10.498 5.29981 10.1859 4.91699 10.1859C4.53418 10.1859 4.22246 10.498 4.22246 10.8812V12.2191C4.22246 12.602 4.53418 12.9133 4.91699 12.9133C5.29981 12.9133 5.61113 12.602 5.61113 12.2191C5.61113 12.0465 5.75098 11.9066 5.92324 11.9066C6.0959 11.9066 6.23574 12.0465 6.23574 12.2191C6.23574 12.9461 5.64395 13.5379 4.91699 13.5379C4.18965 13.5379 3.59785 12.9461 3.59785 12.2191ZM18.7334 17.2305C18.7334 18.4133 17.7713 19.3754 16.5889 19.3754H6.69277C5.51035 19.3754 4.54824 18.4133 4.54824 17.2305V14.8488H14.8369C15.3064 14.8488 15.6885 14.4668 15.6885 13.9973V9.10195C15.6885 8.63242 15.3064 8.25039 14.8369 8.25039H4.54824V2.76953C4.54824 1.58672 5.51035 0.624609 6.69277 0.624609H12.9412V5.48008C12.9412 5.99727 13.3615 6.41797 13.8779 6.41797H18.7334V17.2305ZM8.26426 11.8625C7.99981 11.8625 7.6127 11.8434 7.30645 11.6773C7.06504 11.5465 6.77715 11.273 6.77715 10.7121C6.77715 10.0781 7.29277 9.5625 7.92637 9.5625H8.42481C8.97051 9.5625 9.41465 10.0062 9.41465 10.5516C9.41465 10.7238 9.27481 10.8637 9.10254 10.8637C8.92988 10.8637 8.79004 10.7238 8.79004 10.5516C8.79004 10.3504 8.62637 10.1871 8.42481 10.1871H7.92637C7.63691 10.1871 7.40137 10.4227 7.40137 10.7121C7.40137 10.9996 7.4666 11.2379 8.26426 11.2379C8.89863 11.2379 9.41465 11.7535 9.41465 12.3875C9.41465 13.0215 8.89863 13.5379 8.26426 13.5379H7.76582C7.22051 13.5379 6.77715 13.0938 6.77715 12.548C6.77715 12.3754 6.91699 12.2355 7.08926 12.2355C7.26191 12.2355 7.40137 12.3754 7.40137 12.548C7.40137 12.7492 7.56504 12.9133 7.76582 12.9133H8.26426C8.5541 12.9133 8.79004 12.6773 8.79004 12.3875C8.79004 12.098 8.5541 11.8625 8.26426 11.8625ZM10.0971 9.57734C10.2607 9.52305 10.4373 9.61172 10.4916 9.77539L11.3072 12.234L12.1232 9.77539C12.1779 9.61172 12.3545 9.52305 12.5182 9.57734C12.6818 9.63164 12.7705 9.80859 12.7162 9.97227L11.6033 13.3238C11.5607 13.4516 11.4416 13.5379 11.3068 13.5379C11.2396 13.5379 11.1764 13.5164 11.124 13.4789C11.0725 13.4414 11.0318 13.3875 11.0107 13.3238L9.89902 9.97227C9.84473 9.80859 9.9334 9.63164 10.0971 9.57734Z" fill="#018294"/>
</g>
<defs>
<clipPath id="clip0_504_9">
<rect width="20" height="20" fill="white"/>
</clipPath>
</defs>
</svg>
